<svg xmlns="http://www.w3.org/2000/svg" height="48" viewBox="0 96 960 960" width="48"><path d="M143.5 547h137q-7-47.854-28-90.727-21-42.873-52-73.773-23.5 35-39.25 76T143.5 547Zm536 0h137q-2-47.5-17.75-88.5t-39.25-76q-34.5 34.4-53.75 75.523T679.5 547Zm-479 221.5q34-34.5 53.5-75.25t26.5-88.75h-137q2.083 47.644 17.792 88.322Q177 733.5 200.5 768.5Zm559 0q23.5-35 39.208-75.678 15.709-40.678 17.792-88.322h-137q7 48 26.25 88.75t53.75 75.25ZM339 547h112.5V239.5q-62 6.5-115.75 31.75T239 338.5q40.5 41 66.5 94.5T339 547Zm170 0h112q7.5-60.5 33.642-114.289Q680.783 378.922 722 338.5q-43-41.776-97-67.138Q571 246 509 239.5V547Zm-57.5 365.5v-308H339q-7.5 60.5-33.236 114.035-25.736 53.536-66.764 93.759 43 42.206 94.25 67.956T451.5 912.5Zm57.5 0q67-6.5 118.5-32.25t94.5-67.956q-41.028-40.223-67.264-93.759Q628.5 665 621 604.5H509v308ZM480 581Zm.064 390q-82.064 0-154.07-31.118-72.006-31.119-125.5-84.5Q147 802 116 730.064t-31-154q0-82.064 31.118-154.07 31.119-72.006 84.5-125.5Q254 243 325.936 212t154-31q82.064 0 154.07 31.118 72.006 31.119 125.5 84.5Q813 350 844 421.936t31 154q0 82.064-31.118 154.07-31.119 72.006-84.5 125.5Q706 909 634.064 940t-154 31Z"/></svg>