<svg xmlns="http://www.w3.org/2000/svg" height="48" viewBox="0 96 960 960" width="48"><path d="M189.034 894.5Q127 894.5 86 850.75 45 807 43.5 748.916q0-7.876 1-17.824 1-9.949 3-18.092l84-336q14.09-51.938 57.1-85.969Q231.609 257 285 257h390q53.426 0 96.463 34Q814.5 325 829 377l84 336q2 9.5 3.5 18.839 1.5 9.338 1.5 18.186 0 58.981-42.25 101.728Q833.5 894.5 770.892 894.5q-41.738 0-77.25-21.848-35.511-21.847-53.142-59.152l-28-58q-5.396-11.225-15.311-16.112Q587.274 734.5 575 734.5H385q-12.113 0-22.056 5-9.944 5-14.944 16l-27.804 58Q302 851 266.326 872.75q-35.673 21.75-77.292 21.75Zm2.927-57.5q22.671 0 43.308-11.676Q255.905 813.649 269 788.5l28-57q12.64-25.47 36.2-39.985Q356.76 677 385 677h190q27.457 0 51.228 15Q650 707 664 731.5l28 57q13.171 25.149 33.9 36.824Q746.628 837 768.915 837q34.085 0 61.69-23.788 27.604-23.789 28.895-62.208 0-5.085-.75-11.545Q858 733 856.5 726.5l-84-335q-8.286-33.885-35.243-55.443Q710.3 314.5 675 314.5H285q-34.704 0-62.102 21.5Q195.5 357.5 188 391.5l-84 335q-1 4.5-3 23.5 0 38.629 28.287 62.814Q157.574 837 191.961 837ZM540 524.5q-11.5 0-20-8.5t-8.5-20.5q0-12 8.5-20.25t20.5-8.25q12 0 20.25 8.375T569 496q0 11.5-8.375 20T540 524.5Zm80-80q-11.5 0-20-8.5t-8.5-20.5q0-12 8.5-20.25t20.5-8.25q12 0 20.25 8.375T649 416q0 11.5-8.375 20T620 444.5Zm0 160q-11.5 0-20-8.5t-8.5-20.5q0-12 8.5-20.25t20.5-8.25q12 0 20.25 8.375T649 576q0 11.5-8.375 20T620 604.5Zm80-80q-11.5 0-20-8.5t-8.5-20.5q0-12 8.5-20.25t20.5-8.25q12 0 20.25 8.375T729 496q0 11.5-8.375 20T700 524.5ZM339.929 590q-9.429 0-16.679-7.2Q316 575.6 316 566v-46h-46.115q-9.285 0-16.585-7.221-7.3-7.222-7.3-16.85 0-9.429 7.2-16.929 7.2-7.5 16.8-7.5h46v-45.731q0-9.169 7.221-16.719 7.222-7.55 16.85-7.55 9.429 0 16.929 7.55 7.5 7.55 7.5 16.719V471.5h45.731q9.169 0 16.719 7.571 7.55 7.572 7.55 17 0 9.429-7.55 16.679-7.55 7.25-16.719 7.25H364.5v46.115q0 9.285-7.571 16.585-7.572 7.3-17 7.3Z"/></svg>