<svg version="1.1" id="Layer_1" xmlns="http://www.w3.org/2000/svg" xmlns:xlink="http://www.w3.org/1999/xlink" x="0px" y="0px"
	 width="100%" viewBox="0 0 1330 895" enable-background="new 0 0 1330 895" xml:space="preserve">
<path fill="#FFFFFF" opacity="1.000000" stroke="none" 
	d="
M832.000000,896.000000 
	C554.697693,896.000000 277.895447,896.000000 1.046581,896.000000 
	C1.046581,597.731201 1.046581,299.462372 1.046581,1.000000 
	C222.577255,1.000000 444.154572,1.000000 665.731873,1.000000 
	C887.373657,1.000000 1109.015381,1.000000 1330.828613,1.000000 
	C1330.828613,299.333252 1330.828613,597.666626 1330.828613,896.000000 
	C1164.795532,896.000000 998.647766,896.000000 832.000000,896.000000 
M975.024597,711.040405 
	C973.239868,705.055481 972.116699,698.764343 969.519592,693.155579 
	C965.341248,684.131958 960.203491,675.551575 955.446533,666.797241 
	C945.104126,647.764038 934.778381,628.721741 924.385315,609.716309 
	C914.989197,592.533936 905.479187,575.413818 896.083313,558.231262 
	C889.923096,546.966003 883.688721,535.733643 877.895996,524.279907 
	C876.207275,520.940796 875.294739,516.911560 875.171814,513.161072 
	C875.046631,509.340515 876.329834,505.473328 877.000488,501.627289 
	C879.739868,485.919342 882.437988,470.204071 885.233093,454.506042 
	C888.111206,438.341522 891.030823,422.183929 894.045837,406.044525 
	C895.060303,400.613770 896.422729,395.247986 897.790771,389.114319 
	C904.408997,393.273590 909.897583,396.610687 915.270020,400.125275 
	C923.501404,405.510193 931.597290,411.104706 939.892090,416.388092 
	C941.301392,417.285706 943.858154,417.855316 945.094666,417.163788 
	C946.519226,416.367096 947.697388,414.067993 947.880859,412.306641 
	C948.512024,406.245300 948.802551,400.137756 948.968323,394.040863 
	C949.392090,378.453888 949.606812,362.860931 950.087036,347.275970 
	C950.172791,344.492432 951.131226,341.735809 951.764160,338.580566 
	C953.616272,339.422546 954.706177,339.759033 955.623718,340.359039 
	C968.574646,348.828339 981.423950,357.455475 994.452087,365.803650 
	C1018.821289,381.418945 1043.307251,396.852081 1067.702271,412.427124 
	C1071.592896,414.911133 1074.569336,418.154419 1075.086670,423.126099 
	C1075.982422,431.734192 1077.079834,440.321228 1077.982910,448.928619 
	C1078.753662,456.274078 1079.279297,463.645538 1080.076294,470.987823 
	C1081.311768,482.371552 1082.743774,493.733978 1083.981323,505.117523 
	C1084.779053,512.456848 1085.276611,519.828979 1086.088257,527.166565 
	C1087.311035,538.220642 1088.442749,549.294250 1090.079956,560.290100 
	C1091.439941,569.423706 1092.476440,578.791687 1095.392090,587.472778 
	C1104.525513,614.666504 1114.524414,641.568726 1124.101685,668.614441 
	C1131.515747,689.552124 1138.630859,710.597778 1146.267334,731.453186 
	C1148.062012,736.354492 1148.366943,740.794922 1147.126099,745.745361 
	C1142.628662,763.687195 1138.522583,781.729248 1133.838989,799.620911 
	C1132.596558,804.367493 1134.039307,807.739197 1136.584961,811.237488 
	C1144.654541,822.327026 1152.768433,833.385376 1160.723999,844.556274 
	C1164.129272,849.337769 1166.063110,849.497742 1169.216675,844.545776 
	C1182.531494,823.637756 1195.673462,802.617737 1209.182617,781.836304 
	C1212.519653,776.702881 1214.357300,771.592407 1214.046631,765.482056 
	C1213.533813,755.400330 1213.328613,745.302856 1213.001099,735.211792 
	C1212.662964,724.787903 1212.329346,714.363892 1212.001465,703.939636 
	C1211.662964,693.182312 1211.323975,682.425049 1211.003418,671.667175 
	C1210.658081,660.077087 1210.276978,648.487610 1210.014526,636.895569 
	C1209.627441,619.808167 1209.398193,602.717163 1208.971802,585.630859 
	C1208.715820,575.376465 1208.213013,565.128113 1207.925415,553.965088 
	C1207.958008,547.569275 1208.077393,541.172058 1207.976685,534.778320 
	C1207.940552,532.482849 1207.373901,530.195679 1207.003052,526.980286 
	C1206.667603,505.059875 1206.310913,483.139771 1206.013184,461.218872 
	C1205.947021,456.346252 1207.533936,454.895416 1211.896484,456.088135 
	C1223.392334,459.231201 1234.829834,462.586426 1246.305908,465.802887 
	C1264.391724,470.871948 1282.490112,475.896667 1302.251953,481.405365 
	C1300.589478,478.465393 1300.051758,476.224304 1298.635864,475.213989 
	C1286.840942,466.797089 1274.935913,458.531311 1262.960449,450.372040 
	C1253.279907,443.776367 1243.345703,437.549835 1233.727295,430.867065 
	C1224.677856,424.579559 1215.581787,418.284302 1207.134888,411.238678 
	C1203.310181,408.048462 1199.561523,403.407196 1198.360718,398.757385 
	C1196.663452,392.185791 1197.107422,384.997192 1197.081665,378.070679 
	C1197.019165,361.295776 1196.771118,344.618439 1192.055176,328.263092 
	C1186.746582,309.852386 1182.092773,291.253876 1177.025513,272.772339 
	C1172.085083,254.753342 1167.237549,236.702377 1161.877441,218.806702 
	C1156.596924,201.176697 1151.957397,183.461563 1141.249512,167.726715 
	C1119.061646,135.122437 1097.814331,101.873535 1076.523804,68.669441 
	C1074.126831,64.931221 1071.145630,63.832756 1067.610962,63.058693 
	C1063.336182,62.122543 1058.932495,61.793617 1054.626099,60.981285 
	C1039.680786,58.162075 1024.743774,55.296844 1009.822021,52.355221 
	C994.274170,49.290173 978.761292,46.047215 963.208191,43.009914 
	C948.109009,40.061287 932.966309,37.335453 917.864868,34.398319 
	C905.631226,32.018970 893.437134,29.437496 881.213379,27.006449 
	C864.713623,23.725014 848.257263,20.165251 831.663025,17.455004 
	C826.564148,16.622219 820.078552,16.530384 815.979675,19.003077 
	C808.390503,23.581398 802.133240,30.348944 795.244202,36.112621 
	C790.171082,40.356972 785.034180,44.424206 778.319031,46.042297 
	C764.023621,49.486923 749.798218,53.221424 735.528870,56.775726 
	C723.024902,59.890293 710.508179,62.954411 697.982422,65.980133 
	C682.741821,69.661674 667.477844,73.246964 652.238953,76.935547 
	C639.976257,79.903732 627.758545,83.060181 615.479675,85.958595 
	C599.899719,89.636246 584.326599,93.369690 568.659668,96.644104 
	C555.174316,99.462563 541.561340,101.670746 527.069702,104.027397 
	C461.840881,104.017647 396.612061,104.002884 331.383270,104.038368 
	C330.216309,104.039001 329.049652,104.641487 327.119904,104.970695 
	C324.819000,106.027306 322.107788,106.617813 320.287384,108.220261 
	C311.884674,115.616898 303.728394,123.293571 295.486725,130.873077 
	C286.998413,138.679413 278.497162,146.471802 270.030853,154.301941 
	C256.447052,166.865051 242.884644,179.451309 229.318420,192.033417 
	C219.856598,200.808838 210.390457,209.579651 200.950119,218.378143 
	C190.809692,227.829086 180.625595,237.234879 170.592072,246.798370 
	C160.029739,256.865875 149.663925,267.139313 139.127960,277.234833 
	C134.945908,281.242096 130.834137,285.427124 126.153244,288.781677 
	C120.842537,292.587616 114.526711,293.761719 107.955727,293.003387 
	C104.624481,292.618988 102.408119,293.253754 102.917839,297.463959 
	C103.260078,300.290802 103.056114,303.192352 102.993401,306.058228 
	C102.682999,320.242554 102.090012,334.425903 102.078545,348.610016 
	C102.068016,361.637329 102.891426,374.664001 102.958305,387.692963 
	C103.102852,415.851654 102.991386,444.011658 103.001663,472.171112 
	C103.003433,477.020355 105.082565,478.663269 108.328438,475.864655 
	C115.025032,470.090851 120.594070,463.321442 122.827843,453.694885 
	C122.835815,434.125183 122.843781,414.555450 123.147797,394.402191 
	C124.071114,394.588593 125.552864,394.483429 125.827156,395.008698 
	C127.611694,398.426483 129.154175,401.972107 130.738785,405.492584 
	C139.731216,425.470886 148.878082,445.383118 157.524551,465.510223 
	C158.851608,468.599335 158.780655,472.969635 157.771286,476.261383 
	C153.861038,489.013214 149.252396,501.549194 145.013077,514.202209 
	C140.500916,527.669495 136.084717,541.169312 131.681396,554.672729 
	C129.384201,561.717529 127.204796,568.800720 124.178848,576.276672 
	C124.107803,590.884521 124.023827,605.492432 124.007652,620.100342 
	C124.006920,620.762451 124.618698,621.425171 124.996056,623.012756 
	C125.323082,631.929688 125.625481,640.847595 125.983490,649.763306 
	C126.411385,660.419128 123.073982,670.234253 119.494713,680.044617 
	C109.391586,707.736023 99.382294,735.461731 89.376877,763.188660 
	C82.606262,781.951294 75.822792,800.710083 69.195496,819.523560 
	C62.673546,838.038025 56.288506,856.601318 49.959297,875.182678 
	C48.155567,880.478088 48.500599,880.776917 54.322174,881.838013 
	C54.816460,881.891479 55.310734,881.991638 55.805038,881.991821 
	C96.390625,882.004639 136.976242,882.017578 177.561768,881.975708 
	C178.729263,881.974548 179.896149,881.386414 181.973312,881.005493 
	C185.723633,881.324829 189.494675,881.492004 193.219452,881.999023 
	C198.958298,882.780090 202.560364,879.146118 200.930634,873.597229 
	C197.895737,863.263977 194.491501,853.039795 191.402176,842.721924 
	C189.399231,836.032410 186.811569,829.338989 188.410324,822.160339 
	C189.531509,817.126160 191.061432,812.183655 192.381607,807.192993 
	C200.938477,774.845154 209.261642,742.433044 218.148758,710.176208 
	C221.811661,696.881226 228.804565,685.505188 241.311172,678.343811 
	C245.239304,676.094482 247.286972,676.867126 249.028107,681.201965 
	C254.068039,693.749634 259.615021,706.092468 264.797333,718.584412 
	C277.703766,749.695374 290.600922,780.810852 303.288239,812.011414 
	C305.389740,817.179504 308.275665,823.038940 307.582428,828.141968 
	C305.576019,842.911316 301.943878,857.460876 298.922516,872.091064 
	C297.209076,880.387939 297.643311,880.970215 306.345245,881.850403 
	C336.412903,881.907654 366.480560,881.972595 396.548218,881.982483 
	C397.382996,881.982788 398.217987,881.394165 399.980988,881.006409 
	C414.480377,881.003113 428.980560,880.911560 443.478851,881.037048 
	C449.893921,881.092529 456.307617,881.825928 462.716888,881.759827 
	C465.102264,881.735229 467.473206,880.307129 469.850739,879.519043 
	C469.087128,877.320923 468.734497,874.852722 467.495239,872.967224 
	C456.902557,856.850220 445.922821,840.983459 435.535645,824.737061 
	C430.022369,816.113892 424.003693,807.379456 420.758972,797.830139 
	C413.891510,777.619385 408.834534,756.799561 402.774506,736.306580 
	C396.255493,714.261719 389.339264,692.334229 382.820953,670.289124 
	C381.196625,664.795654 378.453979,658.578430 379.652283,653.502930 
	C383.201996,638.467468 388.390930,623.813049 393.101471,609.061523 
	C394.421844,604.926575 397.421356,602.688782 402.021149,602.982422 
	C408.111603,603.371338 414.208069,603.665894 420.302460,603.991699 
	C439.084473,604.995605 457.863434,606.064087 476.650238,606.968872 
	C486.903168,607.462585 497.170074,607.662109 507.429016,608.039490 
	C508.387665,608.074707 509.333527,608.612854 510.286743,608.617432 
	C519.455261,608.661255 528.820374,610.849670 537.690857,607.076477 
	C557.666199,598.579529 577.536072,589.835022 597.474121,581.249756 
	C619.386536,571.814148 641.323059,562.434448 663.258545,553.052429 
	C668.738770,550.708435 670.867615,551.768188 671.939697,557.316833 
	C673.328369,564.503296 674.625916,571.707581 676.049866,578.886902 
	C677.333679,585.359741 679.928955,590.813965 686.856079,593.150391 
	C688.328796,593.647156 689.577026,595.130005 690.666382,596.385986 
	C694.685242,601.019531 692.487793,606.219727 692.078186,611.369690 
	C690.876831,626.471313 690.000549,641.598877 689.005798,656.716797 
	C688.000244,671.999573 687.013672,687.283630 686.003113,702.566040 
	C685.014465,717.518127 683.871338,732.461548 683.043945,747.422424 
	C682.195312,762.768494 682.196411,778.182800 680.760376,793.467102 
	C679.905640,802.563660 678.176575,811.946533 674.758240,820.354004 
	C668.392578,836.010254 660.412842,851.005066 653.310547,866.370178 
	C651.228699,870.874084 649.841248,875.698975 647.882996,881.069397 
	C653.302307,881.069397 657.117615,881.069397 661.334717,881.851685 
	C661.662415,881.905457 661.990173,882.006348 662.317871,882.006348 
	C708.053772,882.008911 753.789612,882.010986 799.525452,881.960815 
	C800.702148,881.959534 801.878174,881.383362 803.808350,881.037903 
	C808.190735,878.938904 805.337769,876.476379 803.937134,874.437195 
	C794.827698,861.175171 785.660278,847.951782 776.375610,834.812073 
	C773.585693,830.863770 771.884277,826.548340 773.146545,821.969910 
	C778.157227,803.795776 783.572266,785.733521 788.731750,767.599792 
	C793.903137,749.424255 798.927490,731.206909 804.058289,713.019775 
	C806.685730,703.706177 809.300781,694.386536 812.139648,685.136597 
	C813.127258,681.918640 814.190186,679.650146 818.607605,682.851318 
	C826.386902,688.488831 834.966064,693.015930 843.156372,698.094971 
	C849.571472,702.073120 855.291016,706.482300 857.773193,714.305298 
	C864.421204,735.257324 871.443542,756.091125 878.393005,776.946594 
	C879.980530,781.710754 880.301086,786.177124 878.429626,791.105469 
	C871.294739,809.893921 864.532288,828.823608 857.595398,847.687561 
	C856.192322,851.502991 856.137085,854.639038 859.254089,858.085693 
	C864.573425,863.967468 869.503479,870.269104 873.978638,876.817078 
	C876.129395,879.964050 878.454834,881.221008 882.362427,881.853760 
	C918.771973,881.902405 955.181580,881.957458 991.591125,881.960083 
	C992.425354,881.960144 993.259583,881.367004 994.835754,881.026794 
	C996.360718,879.766602 998.409424,878.804626 999.324524,877.197205 
	C1004.738892,867.687927 1009.865295,858.015076 1015.141052,848.426147 
	C1017.439636,844.248413 1015.399353,840.796082 1013.153503,837.641846 
	C1007.542664,829.761475 1001.691223,822.051697 995.903748,814.297852 
	C991.845947,808.861389 987.676208,803.507812 983.660522,798.040771 
	C977.766113,790.016235 976.369690,781.023926 976.805359,771.160583 
	C977.248840,761.120667 976.219666,751.015686 975.940979,740.015015 
	C975.965820,731.944458 976.035278,723.873535 975.970642,715.803711 
	C975.960144,714.488892 975.356567,713.178833 975.024597,711.040405 
z"/>
<path fill="#A1242A" opacity="1.000000" stroke="none" 
	d="
M122.042763,454.107178 
	C120.594070,463.321442 115.025032,470.090851 108.328438,475.864655 
	C105.082565,478.663269 103.003433,477.020355 103.001663,472.171112 
	C102.991386,444.011658 103.102852,415.851654 102.958305,387.692963 
	C102.891426,374.664001 102.068016,361.637329 102.078545,348.610016 
	C102.090012,334.425903 102.682999,320.242554 102.993401,306.058228 
	C103.056114,303.192352 103.260078,300.290802 102.917839,297.463959 
	C102.408119,293.253754 104.624481,292.618988 107.955727,293.003387 
	C114.526711,293.761719 120.842537,292.587616 126.153244,288.781677 
	C130.834137,285.427124 134.945908,281.242096 139.127960,277.234833 
	C149.663925,267.139313 160.029739,256.865875 170.592072,246.798370 
	C180.625595,237.234879 190.809692,227.829086 200.950119,218.378143 
	C210.390457,209.579651 219.856598,200.808838 229.318420,192.033417 
	C242.884644,179.451309 256.447052,166.865051 270.030853,154.301941 
	C278.497162,146.471802 286.998413,138.679413 295.486725,130.873077 
	C303.728394,123.293571 311.884674,115.616898 320.287384,108.220261 
	C322.107788,106.617813 324.819000,106.027306 327.976593,104.998055 
	C391.634979,105.035461 454.436707,105.060425 517.238403,105.016762 
	C520.827393,105.014267 524.416016,104.451035 528.004822,104.148773 
	C541.561340,101.670746 555.174316,99.462563 568.659668,96.644104 
	C584.326599,93.369690 599.899719,89.636246 615.479675,85.958595 
	C627.758545,83.060181 639.976257,79.903732 652.238953,76.935547 
	C667.477844,73.246964 682.741821,69.661674 697.982422,65.980133 
	C710.508179,62.954411 723.024902,59.890293 735.528870,56.775726 
	C749.798218,53.221424 764.023621,49.486923 778.319031,46.042297 
	C785.034180,44.424206 790.171082,40.356972 795.244202,36.112621 
	C802.133240,30.348944 808.390503,23.581398 815.979675,19.003077 
	C820.078552,16.530384 826.564148,16.622219 831.663025,17.455004 
	C848.257263,20.165251 864.713623,23.725014 881.213379,27.006449 
	C893.437134,29.437496 905.631226,32.018970 917.864868,34.398319 
	C932.966309,37.335453 948.109009,40.061287 963.208191,43.009914 
	C978.761292,46.047215 994.274170,49.290173 1009.822021,52.355221 
	C1024.743774,55.296844 1039.680786,58.162075 1054.626099,60.981285 
	C1058.932495,61.793617 1063.336182,62.122543 1067.610962,63.058693 
	C1071.145630,63.832756 1074.126831,64.931221 1076.523804,68.669441 
	C1097.814331,101.873535 1119.061646,135.122437 1141.249512,167.726715 
	C1151.957397,183.461563 1156.596924,201.176697 1161.877441,218.806702 
	C1167.237549,236.702377 1172.085083,254.753342 1177.025513,272.772339 
	C1182.092773,291.253876 1186.746582,309.852386 1192.055176,328.263092 
	C1196.771118,344.618439 1197.019165,361.295776 1197.081665,378.070679 
	C1197.107422,384.997192 1196.663452,392.185791 1198.360718,398.757385 
	C1199.561523,403.407196 1203.310181,408.048462 1207.134888,411.238678 
	C1215.581787,418.284302 1224.677856,424.579559 1233.727295,430.867065 
	C1243.345703,437.549835 1253.279907,443.776367 1262.960449,450.372040 
	C1274.935913,458.531311 1286.840942,466.797089 1298.635864,475.213989 
	C1300.051758,476.224304 1300.589478,478.465393 1302.251953,481.405365 
	C1282.490112,475.896667 1264.391724,470.871948 1246.305908,465.802887 
	C1234.829834,462.586426 1223.392334,459.231201 1211.896484,456.088135 
	C1207.533936,454.895416 1205.947021,456.346252 1206.013184,461.218872 
	C1206.310913,483.139771 1206.667603,505.059875 1206.976074,527.914612 
	C1207.239746,537.524963 1207.530518,546.201050 1207.821045,554.877075 
	C1208.213013,565.128113 1208.715820,575.376465 1208.971802,585.630859 
	C1209.398193,602.717163 1209.627441,619.808167 1210.014526,636.895569 
	C1210.276978,648.487610 1210.658081,660.077087 1211.003418,671.667175 
	C1211.323975,682.425049 1211.662964,693.182312 1212.001465,703.939636 
	C1212.329346,714.363892 1212.662964,724.787903 1213.001099,735.211792 
	C1213.328613,745.302856 1213.533813,755.400330 1214.046631,765.482056 
	C1214.357300,771.592407 1212.519653,776.702881 1209.182617,781.836304 
	C1195.673462,802.617737 1182.531494,823.637756 1169.216675,844.545776 
	C1166.063110,849.497742 1164.129272,849.337769 1160.723999,844.556274 
	C1152.768433,833.385376 1144.654541,822.327026 1136.584961,811.237488 
	C1134.039307,807.739197 1132.596558,804.367493 1133.838989,799.620911 
	C1138.522583,781.729248 1142.628662,763.687195 1147.126099,745.745361 
	C1148.366943,740.794922 1148.062012,736.354492 1146.267334,731.453186 
	C1138.630859,710.597778 1131.515747,689.552124 1124.101685,668.614441 
	C1114.524414,641.568726 1104.525513,614.666504 1095.392090,587.472778 
	C1092.476440,578.791687 1091.439941,569.423706 1090.079956,560.290100 
	C1088.442749,549.294250 1087.311035,538.220642 1086.088257,527.166565 
	C1085.276611,519.828979 1084.779053,512.456848 1083.981323,505.117523 
	C1082.743774,493.733978 1081.311768,482.371552 1080.076294,470.987823 
	C1079.279297,463.645538 1078.753662,456.274078 1077.982910,448.928619 
	C1077.079834,440.321228 1075.982422,431.734192 1075.086670,423.126099 
	C1074.569336,418.154419 1071.592896,414.911133 1067.702271,412.427124 
	C1043.307251,396.852081 1018.821289,381.418945 994.452087,365.803650 
	C981.423950,357.455475 968.574646,348.828339 955.623718,340.359039 
	C954.706177,339.759033 953.616272,339.422546 951.764160,338.580566 
	C951.131226,341.735809 950.172791,344.492432 950.087036,347.275970 
	C949.606812,362.860931 949.392090,378.453888 948.968323,394.040863 
	C948.802551,400.137756 948.512024,406.245300 947.880859,412.306641 
	C947.697388,414.067993 946.519226,416.367096 945.094666,417.163788 
	C943.858154,417.855316 941.301392,417.285706 939.892090,416.388092 
	C931.597290,411.104706 923.501404,405.510193 915.270020,400.125275 
	C909.897583,396.610687 904.408997,393.273590 897.790771,389.114319 
	C896.422729,395.247986 895.060303,400.613770 894.045837,406.044525 
	C891.030823,422.183929 888.111206,438.341522 885.233093,454.506042 
	C882.437988,470.204071 879.739868,485.919342 877.000488,501.627289 
	C876.329834,505.473328 875.046631,509.340515 875.171814,513.161072 
	C875.294739,516.911560 876.207275,520.940796 877.895996,524.279907 
	C883.688721,535.733643 889.923096,546.966003 896.083313,558.231262 
	C905.479187,575.413818 914.989197,592.533936 924.385315,609.716309 
	C934.778381,628.721741 945.104126,647.764038 955.446533,666.797241 
	C960.203491,675.551575 965.341248,684.131958 969.519592,693.155579 
	C972.116699,698.764343 973.239868,705.055481 974.985474,711.929504 
	C974.960632,714.970398 974.922180,717.124023 974.998596,719.273560 
	C975.255432,726.496216 975.553284,733.717468 975.835327,740.939209 
	C976.219666,751.015686 977.248840,761.120667 976.805359,771.160583 
	C976.369690,781.023926 977.766113,790.016235 983.660522,798.040771 
	C987.676208,803.507812 991.845947,808.861389 995.903748,814.297852 
	C1001.691223,822.051697 1007.542664,829.761475 1013.153503,837.641846 
	C1015.399353,840.796082 1017.439636,844.248413 1015.141052,848.426147 
	C1009.865295,858.015076 1004.738892,867.687927 999.324524,877.197205 
	C998.409424,878.804626 996.360718,879.766602 993.991455,881.010071 
	C956.082153,881.023071 919.017090,881.052734 881.952087,881.082458 
	C878.454834,881.221008 876.129395,879.964050 873.978638,876.817078 
	C869.503479,870.269104 864.573425,863.967468 859.254089,858.085693 
	C856.137085,854.639038 856.192322,851.502991 857.595398,847.687561 
	C864.532288,828.823608 871.294739,809.893921 878.429626,791.105469 
	C880.301086,786.177124 879.980530,781.710754 878.393005,776.946594 
	C871.443542,756.091125 864.421204,735.257324 857.773193,714.305298 
	C855.291016,706.482300 849.571472,702.073120 843.156372,698.094971 
	C834.966064,693.015930 826.386902,688.488831 818.607605,682.851318 
	C814.190186,679.650146 813.127258,681.918640 812.139648,685.136597 
	C809.300781,694.386536 806.685730,703.706177 804.058289,713.019775 
	C798.927490,731.206909 793.903137,749.424255 788.731750,767.599792 
	C783.572266,785.733521 778.157227,803.795776 773.146545,821.969910 
	C771.884277,826.548340 773.585693,830.863770 776.375610,834.812073 
	C785.660278,847.951782 794.827698,861.175171 803.937134,874.437195 
	C805.337769,876.476379 808.190735,878.938904 802.961243,881.031494 
	C755.053772,881.039795 707.993347,881.054565 660.932983,881.069397 
	C657.117615,881.069397 653.302307,881.069397 647.882996,881.069397 
	C649.841248,875.698975 651.228699,870.874084 653.310547,866.370178 
	C660.412842,851.005066 668.392578,836.010254 674.758240,820.354004 
	C678.176575,811.946533 679.905640,802.563660 680.760376,793.467102 
	C682.196411,778.182800 682.195312,762.768494 683.043945,747.422424 
	C683.871338,732.461548 685.014465,717.518127 686.003113,702.566040 
	C687.013672,687.283630 688.000244,671.999573 689.005798,656.716797 
	C690.000549,641.598877 690.876831,626.471313 692.078186,611.369690 
	C692.487793,606.219727 694.685242,601.019531 690.666382,596.385986 
	C689.577026,595.130005 688.328796,593.647156 686.856079,593.150391 
	C679.928955,590.813965 677.333679,585.359741 676.049866,578.886902 
	C674.625916,571.707581 673.328369,564.503296 671.939697,557.316833 
	C670.867615,551.768188 668.738770,550.708435 663.258545,553.052429 
	C641.323059,562.434448 619.386536,571.814148 597.474121,581.249756 
	C577.536072,589.835022 557.666199,598.579529 537.690857,607.076477 
	C528.820374,610.849670 519.455261,608.661255 510.286743,608.617432 
	C509.333527,608.612854 508.387665,608.074707 507.429016,608.039490 
	C497.170074,607.662109 486.903168,607.462585 476.650238,606.968872 
	C457.863434,606.064087 439.084473,604.995605 420.302460,603.991699 
	C414.208069,603.665894 408.111603,603.371338 402.021149,602.982422 
	C397.421356,602.688782 394.421844,604.926575 393.101471,609.061523 
	C388.390930,623.813049 383.201996,638.467468 379.652283,653.502930 
	C378.453979,658.578430 381.196625,664.795654 382.820953,670.289124 
	C389.339264,692.334229 396.255493,714.261719 402.774506,736.306580 
	C408.834534,756.799561 413.891510,777.619385 420.758972,797.830139 
	C424.003693,807.379456 430.022369,816.113892 435.535645,824.737061 
	C445.922821,840.983459 456.902557,856.850220 467.495239,872.967224 
	C468.734497,874.852722 469.087128,877.320923 469.850739,879.519043 
	C467.473206,880.307129 465.102264,881.735229 462.716888,881.759827 
	C456.307617,881.825928 449.893921,881.092529 443.478851,881.037048 
	C428.980560,880.911560 414.480377,881.003113 399.047974,880.994629 
	C367.389526,881.012878 336.664124,881.042908 305.938721,881.072998 
	C297.643311,880.970215 297.209076,880.387939 298.922516,872.091064 
	C301.943878,857.460876 305.576019,842.911316 307.582428,828.141968 
	C308.275665,823.038940 305.389740,817.179504 303.288239,812.011414 
	C290.600922,780.810852 277.703766,749.695374 264.797333,718.584412 
	C259.615021,706.092468 254.068039,693.749634 249.028107,681.201965 
	C247.286972,676.867126 245.239304,676.094482 241.311172,678.343811 
	C228.804565,685.505188 221.811661,696.881226 218.148758,710.176208 
	C209.261642,742.433044 200.938477,774.845154 192.381607,807.192993 
	C191.061432,812.183655 189.531509,817.126160 188.410324,822.160339 
	C186.811569,829.338989 189.399231,836.032410 191.402176,842.721924 
	C194.491501,853.039795 197.895737,863.263977 200.930634,873.597229 
	C202.560364,879.146118 198.958298,882.780090 193.219452,881.999023 
	C189.494675,881.492004 185.723633,881.324829 181.048477,880.991272 
	C138.053528,881.003357 95.983414,881.029663 53.913300,881.056030 
	C48.500599,880.776917 48.155567,880.478088 49.959297,875.182678 
	C56.288506,856.601318 62.673546,838.038025 69.195496,819.523560 
	C75.822792,800.710083 82.606262,781.951294 89.376877,763.188660 
	C99.382294,735.461731 109.391586,707.736023 119.494713,680.044617 
	C123.073982,670.234253 126.411385,660.419128 125.983490,649.763306 
	C125.625481,640.847595 125.323082,631.929688 125.020859,622.078735 
	C125.021172,606.052002 124.996681,590.959290 124.972183,575.866577 
	C127.204796,568.800720 129.384201,561.717529 131.681396,554.672729 
	C136.084717,541.169312 140.500916,527.669495 145.013077,514.202209 
	C149.252396,501.549194 153.861038,489.013214 157.771286,476.261383 
	C158.780655,472.969635 158.851608,468.599335 157.524551,465.510223 
	C148.878082,445.383118 139.731216,425.470886 130.738785,405.492584 
	C129.154175,401.972107 127.611694,398.426483 125.827156,395.008698 
	C125.552864,394.483429 124.071114,394.588593 122.721832,395.007751 
	C122.211502,415.111298 122.127129,434.609222 122.042763,454.107178 
M761.631958,857.829651 
	C761.707214,856.097412 762.413818,854.046692 761.732483,852.696167 
	C760.073059,849.406616 757.847351,846.387146 755.710144,843.357361 
	C751.148254,836.890381 749.703613,830.039124 751.858032,822.228210 
	C758.637207,797.649475 765.208191,773.013123 771.783813,748.378784 
	C773.025024,743.728882 773.917908,738.986023 774.971558,734.286072 
	C773.181885,734.627991 772.266541,735.286804 771.554749,736.119507 
	C764.028198,744.924683 756.554077,753.774719 749.026428,762.578918 
	C737.032043,776.607300 725.243530,790.821350 712.932190,804.566589 
	C699.796021,819.232544 690.235352,835.833252 684.059692,854.437500 
	C683.720337,855.459778 684.682251,856.913940 685.669006,858.695496 
	C686.318787,858.794861 686.968445,858.980652 687.618286,858.981079 
	C710.822632,858.996765 734.026978,859.007996 757.231262,858.960083 
	C758.480347,858.957458 759.728455,858.437622 761.631958,857.829651 
M1185.994385,555.217468 
	C1185.664062,548.628479 1185.195190,542.043030 1185.030273,535.449890 
	C1184.607422,518.536377 1184.321411,501.619537 1183.967041,484.704285 
	C1183.957031,484.227875 1183.793213,483.754639 1183.503418,482.260620 
	C1182.043823,483.557129 1180.766846,484.311859 1180.009155,485.421265 
	C1167.650513,503.518372 1155.322388,521.636658 1143.062622,539.800903 
	C1135.858398,550.474670 1128.710449,561.188660 1121.738281,572.014099 
	C1120.715698,573.601807 1119.942139,576.279846 1120.588867,577.800110 
	C1121.622681,580.229858 1123.799561,582.255188 1125.742065,584.203430 
	C1144.675171,603.191956 1163.648315,622.140686 1182.652954,641.057678 
	C1184.100952,642.499084 1185.875366,643.612549 1187.951782,645.232483 
	C1187.951782,637.370667 1187.951782,630.233948 1188.054443,622.152893 
	C1187.763184,613.143066 1187.471924,604.133240 1186.992310,594.212830 
	C1186.979370,590.841370 1186.966431,587.469971 1187.053101,583.153625 
	C1186.763306,574.146790 1186.473633,565.139893 1185.994385,555.217468 
M892.713623,862.679199 
	C893.529907,862.792664 894.346130,863.004700 895.162476,863.005310 
	C921.878906,863.025391 948.595398,863.037109 975.311768,862.990356 
	C976.558899,862.988159 977.805115,862.437439 979.749817,861.981750 
	C982.443298,858.438538 985.170105,854.920044 987.821411,851.345520 
	C990.757996,847.386536 990.078735,843.554443 987.245911,839.860168 
	C980.648743,831.256836 974.175049,822.554871 967.415833,814.080688 
	C959.809326,804.544250 954.873169,794.130920 954.975708,781.642090 
	C955.094849,767.136963 955.035645,752.629944 954.961182,738.124268 
	C954.952271,736.393188 954.362976,734.665100 954.042725,732.935669 
	C953.565491,732.875916 953.088257,732.816162 952.611023,732.756409 
	C950.309082,735.824341 948.215881,739.078674 945.669800,741.928528 
	C933.426270,755.632935 920.772522,768.983337 908.874146,782.977844 
	C903.833008,788.906982 899.244141,795.677429 896.296814,802.826904 
	C891.418762,814.660034 888.046448,827.113037 884.020630,839.298584 
	C879.995605,851.482239 881.500854,855.782654 892.713623,862.679199 
M332.655060,860.668823 
	C333.305878,860.769043 333.956665,860.956665 334.607483,860.957031 
	C364.782318,860.972229 394.957184,860.971130 425.916321,860.971863 
	C427.221558,860.465210 428.526825,859.958618 430.378235,859.239990 
	C429.804230,857.261597 429.616852,855.051819 428.583374,853.358459 
	C425.902069,848.965210 422.765778,844.852966 419.959961,840.531799 
	C413.337250,830.332336 405.490814,820.865540 401.868073,808.901306 
	C394.313782,783.952942 386.578308,759.059448 378.913544,734.144531 
	C375.100677,721.750488 371.279510,709.358948 367.462097,696.966309 
	C366.937958,696.865906 366.413818,696.765503 365.889679,696.665100 
	C364.939270,699.274353 363.717621,701.819214 363.079987,704.502869 
	C355.833099,735.000977 348.636444,765.511169 341.507996,796.037231 
	C336.915375,815.704041 332.633301,835.445679 327.810120,855.054871 
	C326.677460,859.659729 328.720612,860.014587 332.655060,860.668823 
M82.625465,858.666870 
	C83.278435,858.765991 83.931351,858.951355 84.584381,858.951782 
	C111.479683,858.969177 138.375000,858.981140 165.270233,858.937683 
	C166.528824,858.935669 167.786575,858.420959 169.845306,857.949097 
	C170.211456,856.335266 171.079315,854.643250 170.842636,853.123291 
	C170.296692,849.617310 169.065567,846.224060 168.379166,842.732666 
	C166.617905,833.774048 164.950378,824.949524 167.512756,815.666870 
	C175.551056,786.546753 183.175339,757.312012 190.891800,728.103699 
	C191.830032,724.552429 192.352554,720.891296 193.067734,717.281067 
	C177.657288,728.100220 163.410034,739.318665 149.123291,750.486633 
	C137.124390,759.866089 124.932037,769.005554 113.123703,778.617859 
	C108.025475,782.767944 102.175613,786.443909 99.982918,793.381348 
	C93.620956,813.509827 87.095108,833.586609 80.807083,853.737854 
	C80.423515,854.967102 81.548523,856.667053 82.625465,858.666870 
M514.418274,124.310211 
	C513.766174,124.209999 513.114014,124.022285 512.461914,124.022064 
	C470.904846,124.007843 429.347809,124.001556 387.790771,124.043449 
	C386.533081,124.044716 385.275909,124.563286 383.370422,125.172104 
	C381.727081,127.192429 379.354187,128.964233 378.566681,131.276093 
	C375.145569,141.319336 372.199280,151.523911 369.057434,161.662720 
	C356.771912,201.308197 344.462250,240.946198 332.208801,280.601562 
	C330.884369,284.887787 329.867218,289.268951 328.707489,293.606049 
	C329.127167,293.770325 329.546875,293.934601 329.966553,294.098877 
	C339.860077,285.311554 349.790405,276.565247 359.635315,267.723785 
	C367.345062,260.799805 374.887604,253.689301 382.613068,246.783218 
	C397.402191,233.562744 412.280151,220.441727 427.097565,207.252838 
	C433.718658,201.359436 440.231812,195.344208 446.882874,189.485214 
	C460.395996,177.581421 473.996765,165.777039 487.508881,153.872086 
	C496.739014,145.739838 505.865082,137.489563 515.074402,129.333511 
	C516.870667,127.742714 517.686707,126.344238 514.418274,124.310211 
M143.305023,588.703979 
	C143.211105,614.541565 143.117188,640.379211 143.012573,667.012756 
	C142.993256,667.678467 143.133972,668.397705 142.931549,669.002075 
	C134.951996,692.827332 126.925766,716.636902 118.986374,740.475525 
	C118.638496,741.520081 119.048660,742.817139 119.147095,744.852234 
	C125.956223,739.331909 131.547684,734.599670 137.347366,730.138000 
	C149.648468,720.674988 162.094345,711.400391 174.414948,701.962585 
	C194.590546,686.507629 214.719116,670.991211 234.852982,655.481934 
	C237.920517,653.118958 238.964828,650.488647 237.086609,646.530945 
	C233.219208,638.381470 229.862701,629.990112 226.270447,621.709351 
	C217.620056,601.768738 208.919540,581.849670 200.307693,561.892456 
	C194.118835,547.550232 188.103668,533.132935 181.884872,518.803894 
	C178.967499,512.081909 175.752548,505.489014 172.083023,497.564758 
	C170.637848,500.219849 169.607300,501.599976 169.089111,503.151276 
	C166.394028,511.219330 163.829712,519.331055 161.219452,527.427490 
	C156.642212,541.625122 151.879486,555.766846 147.576736,570.047180 
	C145.812881,575.901184 145.041840,582.054382 143.305023,588.703979 
M143.994370,379.693237 
	C145.902817,382.093292 147.492783,384.866608 149.782242,386.820129 
	C155.569580,391.758331 161.702179,396.289612 167.640060,401.054169 
	C176.641693,408.277130 185.551163,415.615387 194.581192,422.802429 
	C205.230972,431.278595 215.977356,439.633331 226.663300,448.064240 
	C235.452408,454.998535 244.204437,461.979797 252.990906,468.917419 
	C264.823273,478.260071 276.736755,487.501282 288.495331,496.935638 
	C298.303955,504.805481 307.829346,513.030212 317.688385,520.834778 
	C324.998627,526.621643 332.681976,531.934814 340.127289,537.554199 
	C347.635834,543.221252 355.055786,549.005676 363.184814,555.253784 
	C362.956360,552.933105 363.070099,551.550781 362.662659,550.344482 
	C358.847839,539.050354 354.776031,527.840759 351.099640,516.502563 
	C342.906097,491.233490 334.982941,465.876740 326.791382,440.607025 
	C316.582153,409.112976 306.237701,377.662659 295.883636,346.215820 
	C294.570862,342.228638 292.730072,338.421082 288.190491,337.129791 
	C285.246155,336.292267 282.233551,335.692322 279.246765,335.006683 
	C253.826263,329.171143 228.390610,323.400787 202.988281,317.487305 
	C185.656540,313.452606 168.390137,309.136230 151.046829,305.153473 
	C147.949890,304.442230 144.620911,304.747864 143.312866,309.669586 
	C143.221619,332.186554 143.124283,354.703522 143.072998,377.220581 
	C143.071671,377.805389 143.573441,378.391418 143.994370,379.693237 
M933.961792,241.396393 
	C934.636963,228.214218 935.411621,215.036224 935.963379,201.848877 
	C936.730896,183.506363 937.521179,165.159866 937.813477,146.807312 
	C937.861389,143.804657 936.088013,140.103821 933.956116,137.872299 
	C929.234253,132.929657 923.720886,128.748245 918.582458,124.197472 
	C909.498230,116.152214 900.478577,108.033928 891.385437,99.998894 
	C877.393311,87.635002 863.327454,75.354340 849.360962,62.961674 
	C841.983704,56.415775 834.729126,49.730793 827.465576,43.058151 
	C825.426208,41.184757 823.196655,40.797585 821.138977,42.522221 
	C813.876038,48.609325 806.728943,54.835392 799.573120,61.049332 
	C791.665649,67.915962 783.850403,74.889565 775.898315,81.703781 
	C764.996094,91.046059 753.969543,100.243240 743.059998,109.577034 
	C735.354614,116.169350 727.783691,122.918449 720.101501,129.538071 
	C708.483154,139.549377 696.889893,149.592026 685.135925,159.442291 
	C681.371399,162.597031 681.300232,165.785629 683.403381,169.796448 
	C690.305176,182.958328 697.153625,196.149185 703.893555,209.394562 
	C710.032410,221.458481 715.779297,233.728226 722.184509,245.646240 
	C724.095337,249.201645 727.205444,252.496124 730.522400,254.839615 
	C740.135498,261.631561 750.095093,267.938171 759.989014,274.326385 
	C771.910645,282.023804 783.940552,289.553650 795.856995,297.259094 
	C807.497253,304.785919 819.021606,312.491852 830.655701,320.028351 
	C842.694092,327.826752 854.842346,335.455872 866.870789,343.269501 
	C879.577393,351.523712 892.193481,359.917236 904.860962,368.231873 
	C910.799500,372.129791 916.718201,376.061279 922.737793,379.830780 
	C926.195068,381.995789 927.746155,381.036072 928.018677,377.000275 
	C928.272827,373.236023 928.809387,369.486603 928.957947,365.720245 
	C929.688110,347.209564 930.304565,328.694427 931.018311,310.183075 
	C931.253296,304.087708 931.720398,298.001526 931.976440,291.906738 
	C932.670166,275.393982 933.307556,258.878845 933.961792,241.396393 
M407.447845,379.964905 
	C413.495392,383.640869 419.555847,387.295807 425.587738,390.997314 
	C437.485260,398.298187 449.301636,405.734131 461.280579,412.898499 
	C468.088715,416.970276 475.259155,420.434998 482.080780,424.485779 
	C503.723816,437.337738 525.276978,450.341064 546.870178,463.277069 
	C558.937927,470.506561 571.270142,477.338135 582.956604,485.137970 
	C587.244995,488.000122 588.193298,486.187042 589.910522,483.209381 
	C591.756104,480.009247 593.703613,476.867218 595.638672,473.719574 
	C606.347351,456.300598 617.189819,438.962189 627.727478,421.440399 
	C632.840271,412.938965 637.995972,404.365540 641.980530,395.317474 
	C644.681091,389.185059 645.501160,382.196747 646.947327,375.544495 
	C652.599365,349.545013 658.098938,323.512268 663.796692,297.522919 
	C666.109497,286.973816 666.235840,286.966187 655.420471,287.994171 
	C655.255249,288.009888 655.084290,287.976776 654.921265,288.001373 
	C643.472839,289.728058 632.010437,291.367981 620.580627,293.210480 
	C604.990417,295.723541 589.443787,298.509705 573.843994,300.959686 
	C557.894531,303.464539 541.878174,305.547119 525.937073,308.101044 
	C506.330170,311.242310 486.789276,314.794678 467.185699,317.957489 
	C447.554321,321.124695 427.872772,323.979523 408.227997,327.065430 
	C387.471924,330.325958 366.722931,333.635925 346.003784,337.120148 
	C344.026398,337.452698 342.282990,339.176483 340.260223,340.353760 
	C350.077332,346.007233 358.885498,350.969025 367.581665,356.119812 
	C375.726532,360.944000 383.748016,365.976410 391.833069,370.901917 
	C396.778564,373.914795 401.741577,376.898895 407.447845,379.964905 
M542.395081,565.957031 
	C545.895264,559.807617 549.378906,553.648743 552.899109,547.510742 
	C560.194519,534.790161 567.518799,522.086060 574.809692,509.362823 
	C576.704102,506.056885 576.375610,503.440826 572.736877,501.354248 
	C549.292847,487.911041 525.824890,474.506470 502.516418,460.830750 
	C473.345886,443.715546 444.348206,426.306061 415.225616,409.108734 
	C388.751709,393.475525 362.215302,377.948059 335.691895,362.398804 
	C332.783905,360.693970 329.779968,359.152679 326.820526,357.535553 
	C326.420715,357.871521 326.020905,358.207520 325.621094,358.543518 
	C326.879272,363.307800 327.985901,368.118256 329.421783,372.828369 
	C335.747467,393.578125 342.121826,414.313324 348.566864,435.026337 
	C355.684204,457.899994 362.935181,480.731995 370.059021,503.603638 
	C377.082550,526.153259 383.961426,548.748108 391.023438,571.285522 
	C393.870270,580.370850 396.326447,581.876282 405.731964,582.043579 
	C413.318451,582.178467 420.899017,582.660522 428.481567,583.002625 
	C443.147644,583.664368 457.809448,584.440918 472.480225,584.972412 
	C485.722290,585.452148 498.974396,585.651855 512.220459,586.031250 
	C513.331360,586.063049 514.418945,586.589417 515.536133,586.770813 
	C522.944824,587.973755 530.528381,586.303894 533.501099,581.729431 
	C536.645508,576.890747 539.164795,571.645874 542.395081,565.957031 
M791.059082,532.397217 
	C792.334473,532.129089 793.663757,532.009766 794.877075,531.570190 
	C810.112183,526.050842 825.319824,520.455505 840.558777,514.946838 
	C846.246948,512.890625 850.928040,509.666016 852.959900,503.769684 
	C854.053284,500.596436 854.408020,497.165222 855.056946,493.842773 
	C858.048157,478.527679 861.006775,463.206177 864.013672,447.894165 
	C866.925476,433.066193 869.975464,418.264587 872.772949,403.415253 
	C873.901062,397.427094 874.519226,391.342865 875.475098,384.551392 
	C870.022583,385.117828 865.785156,385.494446 861.564758,386.009735 
	C852.803955,387.079346 844.046326,388.179871 835.298035,389.347412 
	C826.563293,390.513062 817.848633,391.830688 809.111938,392.981293 
	C800.196594,394.155426 791.258484,395.155762 782.342590,396.325806 
	C770.849915,397.834045 759.375671,399.482941 747.881714,400.981049 
	C739.124146,402.122498 730.338989,403.052612 721.582947,404.204437 
	C709.933411,405.736908 698.292114,407.337799 686.663330,409.019745 
	C680.720093,409.879395 674.790955,410.872742 668.896179,412.015747 
	C665.859558,412.604553 664.914734,414.505371 665.781982,417.677612 
	C666.806335,421.424316 667.250732,425.325928 668.041504,429.140778 
	C672.178345,449.098083 676.345886,469.049011 680.501343,489.002472 
	C683.673462,504.233856 686.792847,519.476379 690.033325,534.693237 
	C691.952271,543.704407 693.951233,552.702148 696.141418,561.650330 
	C696.942627,564.923462 698.243164,567.059937 702.755188,565.129822 
	C710.551758,561.794617 718.810242,559.557922 726.783569,556.613281 
	C748.016907,548.771667 769.201660,540.798584 791.059082,532.397217 
M302.493896,539.109558 
	C301.185425,537.831848 299.972717,536.434875 298.553589,535.294983 
	C285.392120,524.723145 272.089874,514.323730 259.040466,503.615967 
	C247.941132,494.508392 237.193390,484.973633 226.160141,475.783875 
	C211.154968,463.285767 196.061676,450.892548 180.925797,438.552948 
	C177.057556,435.399384 172.886795,432.616913 168.855042,429.663940 
	C168.488174,430.007507 168.121307,430.351074 167.754440,430.694672 
	C217.463272,549.456055 267.172089,668.217407 316.880920,786.978821 
	C320.714905,778.367737 323.275360,769.945068 325.806244,761.513550 
	C332.198975,740.216248 338.625275,718.928894 344.952179,697.612000 
	C354.310333,666.082092 363.538940,634.513550 372.985718,603.010315 
	C374.057068,599.437561 373.629639,596.837158 370.836578,594.474854 
	C366.102295,590.470886 361.513489,586.289856 356.695679,582.390686 
	C345.213928,573.098206 333.645966,563.911987 322.089325,554.712341 
	C315.743317,549.660645 309.349792,544.668640 302.493896,539.109558 
M373.704071,309.062958 
	C381.800781,308.027069 389.926147,307.174988 397.988129,305.916534 
	C414.207916,303.384674 430.391510,300.621307 446.593262,297.972992 
	C456.860504,296.294739 467.128998,294.623291 477.405151,293.000580 
	C488.173157,291.300171 498.939514,289.582733 509.727814,288.019043 
	C519.891296,286.545959 530.106018,285.416412 540.255249,283.856628 
	C551.977783,282.055084 563.636475,279.840698 575.354065,278.004150 
	C586.935242,276.188995 598.569946,274.716553 610.154114,272.919373 
	C622.196533,271.051117 634.214111,269.018066 646.225830,266.959717 
	C649.566101,266.387268 652.847168,265.469482 656.754028,264.572723 
	C655.424683,262.238617 654.765991,260.761993 653.830505,259.488739 
	C643.880554,245.945297 633.898987,232.424957 623.901611,218.916428 
	C612.065613,202.923645 600.216919,186.940231 588.352417,170.968613 
	C578.222534,157.332047 567.899414,143.834290 558.032227,130.010727 
	C555.613586,126.622292 553.659607,126.529442 550.937012,128.720047 
	C548.003052,131.080673 545.246582,133.664124 542.442444,136.183517 
	C535.721069,142.222275 529.065125,148.334763 522.296082,154.319412 
	C508.549194,166.473251 494.731842,178.547318 480.970306,190.684631 
	C474.692963,196.221100 468.504120,201.857834 462.231079,207.399216 
	C451.179535,217.161713 440.080444,226.870422 429.028259,236.632233 
	C422.754883,242.173157 416.578949,247.824829 410.282227,253.338837 
	C397.352417,264.661407 384.398834,275.957275 371.398621,287.198853 
	C364.981567,292.747803 358.317108,298.015778 352.005310,303.679199 
	C348.906189,306.459961 346.355682,309.852112 343.556885,312.967590 
	C343.889313,313.229248 344.221710,313.490906 344.554138,313.752563 
	C354.020630,312.353394 363.487152,310.954224 373.704071,309.062958 
M861.442078,542.977966 
	C860.781372,541.687256 860.036133,540.432129 859.475220,539.099365 
	C857.558350,534.544739 854.536621,533.182007 849.789490,535.067261 
	C834.533142,541.126282 819.229126,547.066467 803.911987,552.970825 
	C776.132690,563.678955 748.326538,574.317627 720.543457,585.015991 
	C717.196899,586.304626 716.803223,587.745605 720.115356,589.977234 
	C727.486633,594.943665 734.666016,600.194641 741.932739,605.316711 
	C754.495544,614.171814 767.038879,623.054871 779.642395,631.851746 
	C786.912537,636.926147 794.222107,641.949280 801.624878,646.827026 
	C813.418213,654.597778 825.301941,662.231201 837.151611,669.916382 
	C845.739441,675.486023 853.482727,682.151550 863.210144,686.230103 
	C871.791931,689.828369 880.361023,689.646667 889.115479,690.002380 
	C905.114807,690.652466 921.110840,691.395874 937.113770,691.936218 
	C942.499329,692.118103 943.379517,690.536072 941.176208,685.690308 
	C940.711243,684.667542 940.368713,683.579285 939.819031,682.606323 
	C926.275574,658.632446 912.633179,634.714172 899.174438,610.692932 
	C886.665405,588.366455 874.348267,565.932373 861.442078,542.977966 
M236.543747,215.044449 
	C233.004059,218.224518 229.424530,221.361526 225.932343,224.592911 
	C216.504883,233.316284 207.039139,242.000443 197.730148,250.849091 
	C187.763443,260.322968 177.977936,269.987213 168.066360,279.519531 
	C166.041260,281.467133 163.807495,283.197784 161.417892,285.244293 
	C162.782349,286.082001 163.416931,286.713623 164.159302,286.889069 
	C170.095215,288.291809 176.086441,289.471802 181.993378,290.983215 
	C190.690445,293.208588 199.275467,295.891907 208.011246,297.940887 
	C218.964920,300.510071 230.069351,302.436890 241.021530,305.011810 
	C250.383133,307.212769 259.594177,310.046875 268.925720,312.385864 
	C273.916321,313.636749 279.384796,313.609070 283.983459,315.639740 
	C289.990814,318.292572 293.659912,317.105408 295.982117,310.474518 
	C298.257416,303.977386 300.381958,297.427063 302.537079,290.888367 
	C313.531219,257.531708 324.496338,224.165497 335.507172,190.814392 
	C342.081421,170.901337 348.726318,151.011627 355.327454,131.107437 
	C356.909576,126.336899 356.064728,125.092087 351.190094,125.007919 
	C348.359100,124.959045 345.427612,124.528214 342.716492,125.099892 
	C337.892151,126.117172 332.312378,126.594551 328.633667,129.386353 
	C320.288422,135.719620 312.872284,143.285126 305.141296,150.417755 
	C295.457275,159.352249 285.785583,168.301239 276.200317,177.341278 
	C263.102692,189.693893 250.091522,202.138229 236.543747,215.044449 
M1113.006470,311.431732 
	C1107.511108,290.966095 1102.058472,270.488800 1096.487305,250.043854 
	C1095.255737,245.524246 1093.604370,241.119003 1092.045044,236.351257 
	C1048.890503,264.311646 1006.880859,291.530151 964.228210,319.165344 
	C965.862549,320.930664 966.927734,322.674561 968.477539,323.641449 
	C972.731628,326.295258 977.253845,328.515411 981.554260,331.099609 
	C994.674988,338.983948 1007.713440,347.005219 1020.837524,354.883911 
	C1031.512329,361.292328 1042.266846,367.568268 1052.981689,373.910248 
	C1061.463501,378.930573 1069.931030,383.975037 1078.419556,388.983948 
	C1084.140869,392.360077 1089.778320,395.909393 1095.696045,398.900970 
	C1097.278320,399.700745 1100.219238,399.453796 1101.737793,398.463165 
	C1109.703125,393.266693 1117.203857,387.339905 1125.288574,382.351654 
	C1130.062256,379.406403 1130.586670,375.735687 1129.558838,371.081665 
	C1129.109131,369.044830 1128.476318,367.047882 1127.910767,365.037201 
	C1122.964355,347.446930 1118.014038,329.857666 1113.006470,311.431732 
M1051.771118,176.939041 
	C1044.787842,174.972839 1037.803711,173.009598 1030.821411,171.039871 
	C1009.600525,165.053406 988.394531,159.013458 967.150085,153.111771 
	C961.752747,151.612396 959.293091,153.860580 958.999634,159.647430 
	C958.415527,171.165115 957.581360,182.670441 957.035156,194.189636 
	C956.276306,210.195465 955.619995,226.206940 955.046936,242.220551 
	C954.596802,254.801208 954.353699,267.389221 953.971008,279.972504 
	C953.936829,281.094238 953.345947,282.208771 953.364868,283.320648 
	C953.444092,287.978577 951.118408,293.114075 955.724487,297.057037 
	C1010.984619,263.714142 1066.049561,230.488953 1121.114624,197.263779 
	C1120.898926,196.698730 1120.683105,196.133698 1120.467407,195.568649 
	C1097.847534,189.375916 1075.227661,183.183182 1051.771118,176.939041 
M851.850159,358.431946 
	C850.303162,357.562714 848.714844,356.758942 847.215576,355.813965 
	C834.553345,347.832916 821.858459,339.902252 809.266296,331.811737 
	C779.182678,312.482941 749.238098,292.935974 719.037659,273.792053 
	C710.978760,268.683502 704.404480,262.737396 701.109009,253.623718 
	C700.906555,253.063690 700.620422,252.533920 699.896729,250.941711 
	C698.632202,252.961990 697.474548,254.171356 697.065979,255.595596 
	C696.173828,258.705872 695.704468,261.934814 694.988892,265.098663 
	C689.670837,288.612823 684.327454,312.121216 679.007019,335.634827 
	C675.681335,350.332581 672.366394,365.032776 669.080688,379.739471 
	C668.225830,383.565521 670.104248,386.319489 673.468323,385.968018 
	C682.406921,385.034119 691.336975,384.003510 700.253906,382.880432 
	C712.706421,381.312164 725.133484,379.539581 737.591309,378.016693 
	C747.002991,376.866211 756.466003,376.127563 765.870056,374.923920 
	C780.416382,373.062103 794.914124,370.817657 809.465881,369.003387 
	C821.792175,367.466553 834.177795,366.408752 846.509338,364.909729 
	C849.370667,364.561951 852.118652,363.282379 856.403259,361.980499 
	C854.217285,360.367371 853.274719,359.671783 851.850159,358.431946 
M732.984558,85.356926 
	C736.645508,82.425819 740.306458,79.494720 745.142151,75.623085 
	C742.087830,75.623085 740.398193,75.321571 738.857300,75.672791 
	C729.889404,77.716820 720.950256,79.888977 712.012756,82.064484 
	C686.675903,88.231819 661.349487,94.442245 636.008972,100.594749 
	C621.537476,104.108345 607.027527,107.465401 592.574219,111.051559 
	C587.234802,112.376381 582.008179,114.155792 575.628357,116.056030 
	C608.971191,159.228516 641.378906,201.190247 674.065491,243.512955 
	C674.894714,242.460388 675.686584,241.904816 675.811340,241.226501 
	C676.930603,235.141479 677.836304,229.016495 678.997192,222.940018 
	C680.053101,217.413055 680.402832,212.200027 677.428406,206.912949 
	C669.288208,192.443161 661.492798,177.779358 653.561646,163.191971 
	C651.410034,159.234543 651.985107,155.950623 655.506958,152.906845 
	C662.084229,147.222427 668.428101,141.268936 674.932861,135.499344 
	C682.893555,128.438416 690.862793,121.385185 698.931274,114.448364 
	C710.070129,104.871788 721.305115,95.407082 732.984558,85.356926 
M747.645752,634.979797 
	C738.302551,628.653076 729.037903,622.205322 719.575806,616.061707 
	C716.002625,613.741699 714.392822,614.874939 714.002014,619.286682 
	C713.003479,630.559021 711.918945,641.824707 711.048462,653.106995 
	C709.947937,667.371277 708.957581,681.644958 708.046265,695.922729 
	C707.269348,708.095947 706.692627,720.281799 705.984558,732.459656 
	C705.678833,737.717407 705.375977,742.979370 704.876038,748.220825 
	C704.006165,757.339417 702.896057,766.435913 702.109375,775.560852 
	C701.971008,777.165710 702.920227,778.864197 703.367188,780.519470 
	C704.827820,779.525330 706.613098,778.800293 707.696411,777.493408 
	C714.741943,768.993652 721.549500,760.296509 728.599609,751.800720 
	C737.447693,741.138245 746.530457,730.670410 755.373169,720.003540 
	C767.723877,705.104980 779.884583,690.048828 792.253723,675.165710 
	C797.227051,669.181641 797.198914,668.466187 790.670410,664.027283 
	C776.542175,654.421143 762.472778,644.728577 747.645752,634.979797 
M953.901733,126.488480 
	C981.646118,110.964340 1009.965393,96.453262 1037.509155,80.575684 
	C1037.338379,79.944427 1037.167725,79.313171 1036.996948,78.681915 
	C979.464050,66.946518 921.931091,55.211132 864.398132,43.475739 
	C864.143005,43.927483 863.887878,44.379227 863.632751,44.830971 
	C864.367371,45.962425 864.919373,47.286572 865.871338,48.188778 
	C868.597839,50.772747 871.578064,53.089703 874.294739,55.683228 
	C883.634399,64.599518 892.940735,73.551498 902.192261,82.559258 
	C916.334351,96.328766 930.415222,110.161102 944.543152,123.945213 
	C945.348083,124.730583 946.648438,125.137016 947.192383,126.037445 
	C948.931091,128.915970 951.015259,128.119995 953.901733,126.488480 
M626.525391,462.077057 
	C626.260803,462.664276 626.046692,463.280853 625.724304,463.834381 
	C618.520081,476.200287 611.321350,488.569458 604.085815,500.917053 
	C594.330933,517.563721 584.500000,534.166016 574.796570,550.842529 
	C570.896118,557.545776 567.247253,564.395386 563.483887,571.178406 
	C563.858093,571.531982 564.232300,571.885620 564.606445,572.239258 
	C568.822754,570.469666 573.039490,568.701111 577.255249,566.930176 
	C592.330383,560.598022 607.387695,554.223083 622.485474,547.945435 
	C634.620728,542.899597 646.901733,538.186523 658.881165,532.799011 
	C661.136230,531.784912 663.964722,528.034485 663.654785,525.980347 
	C661.671631,512.837036 658.850281,499.821655 656.373657,486.751068 
	C653.862610,473.498352 651.491333,460.218933 648.934692,446.975189 
	C647.968079,441.967926 646.654236,437.027649 645.224365,430.876984 
	C638.657776,441.959503 632.857910,451.748108 626.525391,462.077057 
M1104.030884,496.502594 
	C1105.019287,505.275238 1106.134521,514.036011 1106.959717,522.823975 
	C1107.753784,531.279358 1107.966553,539.812561 1110.568359,549.185791 
	C1125.034668,527.290039 1138.591187,506.739563 1152.182983,486.212372 
	C1159.479126,475.193420 1166.833008,464.212677 1174.166504,453.218536 
	C1177.026367,448.931030 1176.744263,447.665100 1172.102539,445.743195 
	C1169.739136,444.764587 1167.234619,444.119446 1164.778687,443.373596 
	C1144.330078,437.163452 1123.890015,430.924927 1103.418335,424.792023 
	C1098.495117,423.317139 1096.431763,425.144714 1097.033325,430.184357 
	C1097.612793,435.038696 1098.465332,439.862732 1098.963135,444.724152 
	C1100.697998,461.670044 1102.331055,478.626343 1104.030884,496.502594 
M1134.015015,309.550720 
	C1139.173950,329.034393 1144.286865,348.530487 1149.537354,367.989471 
	C1150.407349,371.213379 1150.973389,375.460968 1153.240234,377.191589 
	C1160.355957,382.624023 1168.213867,387.085052 1175.805054,391.889465 
	C1175.978271,391.999084 1176.398560,391.718384 1175.956909,391.861206 
	C1175.956909,377.866608 1177.584961,363.876099 1175.545288,350.442474 
	C1172.989258,333.608704 1167.586426,317.187775 1163.114014,300.669434 
	C1157.884888,281.356262 1152.373657,262.118988 1146.905518,242.871338 
	C1144.349487,233.873627 1141.710205,224.895233 1138.815430,216.003525 
	C1138.460327,214.912994 1135.762573,213.418228 1135.035889,213.799316 
	C1128.920776,217.006241 1123.007690,220.599106 1117.043213,224.092026 
	C1113.443115,226.200287 1112.594482,229.314194 1113.624268,233.214615 
	C1117.151611,246.576462 1120.557617,259.970673 1124.141724,273.317108 
	C1127.316528,285.139526 1130.667236,296.914703 1134.015015,309.550720 
M1042.971802,102.567398 
	C1023.274902,113.679337 1003.578003,124.791267 983.141479,136.320450 
	C984.631775,137.789871 985.571411,139.480667 986.903992,139.888947 
	C991.129150,141.183365 995.517639,141.932556 999.812378,143.014206 
	C1007.552673,144.963608 1015.274414,146.987335 1022.997070,149.005966 
	C1030.573730,150.986465 1038.134644,153.028183 1045.715942,154.990509 
	C1054.859741,157.357285 1064.004395,159.723740 1073.174316,161.986328 
	C1080.202393,163.720474 1087.296265,165.190903 1094.311890,166.971497 
	C1099.561523,168.303818 1104.685181,170.153549 1109.960571,171.352432 
	C1112.384888,171.903381 1115.038452,171.446243 1118.249878,171.446243 
	C1101.100952,145.169617 1084.447998,119.901184 1068.145630,94.408508 
	C1065.668457,90.534836 1063.521973,90.527611 1060.239014,92.423737 
	C1054.672974,95.638603 1049.103882,98.848282 1042.971802,102.567398 
M1183.946411,782.592590 
	C1190.349854,773.665649 1196.163696,764.562439 1195.011230,752.782043 
	C1194.196167,744.450012 1193.518066,736.098633 1193.040649,727.740906 
	C1192.250488,713.908264 1191.433838,700.069092 1191.118286,686.221436 
	C1190.988892,680.546326 1188.328125,676.625977 1184.563477,673.146912 
	C1178.310303,667.367981 1171.754761,661.914612 1165.539062,656.097168 
	C1157.087036,648.186768 1148.891846,640.002197 1140.453735,632.076599 
	C1138.529419,630.269165 1136.061523,629.040466 1133.270142,627.158630 
	C1133.158325,629.031006 1132.970947,629.574158 1133.123169,629.994263 
	C1138.904175,645.954712 1144.706665,661.907471 1150.527222,677.853516 
	C1156.349609,693.804382 1162.407471,709.673889 1167.921387,725.730408 
	C1170.050903,731.931396 1172.406372,738.313721 1170.393066,745.232971 
	C1165.856934,760.822266 1161.537231,776.474365 1157.028564,792.071655 
	C1155.051636,798.910706 1156.314209,804.689697 1161.372070,809.892700 
	C1164.247070,812.850098 1166.022583,812.229919 1167.899414,809.193115 
	C1173.224976,800.575989 1178.551392,791.959290 1183.946411,782.592590 
M896.163757,709.058777 
	C892.336670,709.049683 888.509216,709.005554 884.682495,709.040344 
	C879.741211,709.085266 878.549316,710.733521 880.071655,715.186401 
	C883.746399,725.935303 887.345154,736.710327 891.068909,747.442200 
	C892.919678,752.776062 894.977966,758.037964 897.287231,764.261902 
	C911.814697,746.679871 925.350159,730.298340 939.274597,713.446167 
	C938.036865,712.921143 936.973389,712.132263 935.857483,712.049377 
	C925.704285,711.295044 915.542236,710.660217 905.382141,709.998901 
	C902.590149,709.817139 899.796326,709.663696 896.163757,709.058777 
M1188.186401,427.954224 
	C1189.707153,428.277863 1191.228027,428.601501 1192.748779,428.925140 
	C1178.169556,417.514252 1163.290039,407.209961 1148.290283,397.083923 
	C1147.020874,396.226990 1144.353394,395.745392 1143.343384,396.478302 
	C1137.367310,400.815308 1131.689209,405.562805 1125.910889,410.172180 
	C1125.975220,410.741730 1126.039673,411.311310 1126.104004,411.880859 
	C1146.291992,418.033508 1166.722534,423.324677 1188.186401,427.954224 
M120.996964,372.157593 
	C121.672829,373.635956 122.348694,375.114319 123.024582,376.592682 
	C123.684113,375.097076 124.477913,373.642456 124.952202,372.090240 
	C125.231232,371.177032 125.019508,370.108490 125.000252,369.110382 
	C124.670341,352.011230 124.318771,334.912476 124.014305,317.812897 
	C123.934319,313.321045 124.149216,308.819092 123.925270,304.336945 
	C123.825493,302.340027 122.974266,300.380646 122.464096,298.404236 
	C121.974831,298.513885 121.485565,298.623535 120.996300,298.733185 
	C120.996300,322.912140 120.996300,347.091125 120.996964,372.157593 
z"/>
<path fill="#4F1215" opacity="1.000000" stroke="none" 
	d="
M527.537231,104.088089 
	C524.416016,104.451035 520.827393,105.014267 517.238403,105.016762 
	C454.436707,105.060425 391.634979,105.035461 328.358093,104.994278 
	C329.049652,104.641487 330.216309,104.039001 331.383270,104.038368 
	C396.612061,104.002884 461.840881,104.017647 527.537231,104.088089 
z"/>
<path fill="#290A0C" opacity="1.000000" stroke="none" 
	d="
M661.133850,881.460571 
	C707.993347,881.054565 755.053772,881.039795 802.584351,881.050171 
	C801.878174,881.383362 800.702148,881.959534 799.525452,881.960815 
	C753.789612,882.010986 708.053772,882.008911 662.317871,882.006348 
	C661.990173,882.006348 661.662415,881.905457 661.133850,881.460571 
z"/>
<path fill="#290A0C" opacity="1.000000" stroke="none" 
	d="
M54.117737,881.447021 
	C95.983414,881.029663 138.053528,881.003357 180.593475,881.024475 
	C179.896149,881.386414 178.729263,881.974548 177.561768,881.975708 
	C136.976242,882.017578 96.390625,882.004639 55.805038,881.991821 
	C55.310734,881.991638 54.816460,881.891479 54.117737,881.447021 
z"/>
<path fill="#2A0A0C" opacity="1.000000" stroke="none" 
	d="
M882.157227,881.468140 
	C919.017090,881.052734 956.082153,881.023071 993.620483,881.021973 
	C993.259583,881.367004 992.425354,881.960144 991.591125,881.960083 
	C955.181580,881.957458 918.771973,881.902405 882.157227,881.468140 
z"/>
<path fill="#210809" opacity="1.000000" stroke="none" 
	d="
M306.141968,881.461670 
	C336.664124,881.042908 367.389526,881.012878 398.583923,881.031555 
	C398.217987,881.394165 397.382996,881.982788 396.548218,881.982483 
	C366.480560,881.972595 336.412903,881.907654 306.141968,881.461670 
z"/>
<path fill="#400F11" opacity="1.000000" stroke="none" 
	d="
M122.435303,453.901031 
	C122.127129,434.609222 122.211502,415.111298 122.573814,395.299561 
	C122.843781,414.555450 122.835815,434.125183 122.435303,453.901031 
z"/>
<path fill="#350D0E" opacity="1.000000" stroke="none" 
	d="
M124.575516,576.071655 
	C124.996681,590.959290 125.021172,606.052002 124.995422,621.616211 
	C124.618698,621.425171 124.006920,620.762451 124.007652,620.100342 
	C124.023827,605.492432 124.107803,590.884521 124.575516,576.071655 
z"/>
<path fill="#3B0E10" opacity="1.000000" stroke="none" 
	d="
M975.888184,740.477112 
	C975.553284,733.717468 975.255432,726.496216 974.998596,719.273560 
	C974.922180,717.124023 974.960632,714.970398 974.986755,712.342590 
	C975.356567,713.178833 975.960144,714.488892 975.970642,715.803711 
	C976.035278,723.873535 975.965820,731.944458 975.888184,740.477112 
z"/>
<path fill="#3A0D10" opacity="1.000000" stroke="none" 
	d="
M1207.873291,554.421082 
	C1207.530518,546.201050 1207.239746,537.524963 1206.999268,528.376831 
	C1207.373901,530.195679 1207.940552,532.482849 1207.976685,534.778320 
	C1208.077393,541.172058 1207.958008,547.569275 1207.873291,554.421082 
z"/>
<path fill="#FFFFFF" opacity="1.000000" stroke="none" 
	d="
M933.964539,241.880524 
	C933.307556,258.878845 932.670166,275.393982 931.976440,291.906738 
	C931.720398,298.001526 931.253296,304.087708 931.018311,310.183075 
	C930.304565,328.694427 929.688110,347.209564 928.957947,365.720245 
	C928.809387,369.486603 928.272827,373.236023 928.018677,377.000275 
	C927.746155,381.036072 926.195068,381.995789 922.737793,379.830780 
	C916.718201,376.061279 910.799500,372.129791 904.860962,368.231873 
	C892.193481,359.917236 879.577393,351.523712 866.870789,343.269501 
	C854.842346,335.455872 842.694092,327.826752 830.655701,320.028351 
	C819.021606,312.491852 807.497253,304.785919 795.856995,297.259094 
	C783.940552,289.553650 771.910645,282.023804 759.989014,274.326385 
	C750.095093,267.938171 740.135498,261.631561 730.522400,254.839615 
	C727.205444,252.496124 724.095337,249.201645 722.184509,245.646240 
	C715.779297,233.728226 710.032410,221.458481 703.893555,209.394562 
	C697.153625,196.149185 690.305176,182.958328 683.403381,169.796448 
	C681.300232,165.785629 681.371399,162.597031 685.135925,159.442291 
	C696.889893,149.592026 708.483154,139.549377 720.101501,129.538071 
	C727.783691,122.918449 735.354614,116.169350 743.059998,109.577034 
	C753.969543,100.243240 764.996094,91.046059 775.898315,81.703781 
	C783.850403,74.889565 791.665649,67.915962 799.573120,61.049332 
	C806.728943,54.835392 813.876038,48.609325 821.138977,42.522221 
	C823.196655,40.797585 825.426208,41.184757 827.465576,43.058151 
	C834.729126,49.730793 841.983704,56.415775 849.360962,62.961674 
	C863.327454,75.354340 877.393311,87.635002 891.385437,99.998894 
	C900.478577,108.033928 909.498230,116.152214 918.582458,124.197472 
	C923.720886,128.748245 929.234253,132.929657 933.956116,137.872299 
	C936.088013,140.103821 937.861389,143.804657 937.813477,146.807312 
	C937.521179,165.159866 936.730896,183.506363 935.963379,201.848877 
	C935.411621,215.036224 934.636963,228.214218 933.964539,241.880524 
z"/>
<path fill="#FFFFFF" opacity="1.000000" stroke="none" 
	d="
M407.072266,379.930420 
	C401.741577,376.898895 396.778564,373.914795 391.833069,370.901917 
	C383.748016,365.976410 375.726532,360.944000 367.581665,356.119812 
	C358.885498,350.969025 350.077332,346.007233 340.260223,340.353760 
	C342.282990,339.176483 344.026398,337.452698 346.003784,337.120148 
	C366.722931,333.635925 387.471924,330.325958 408.227997,327.065430 
	C427.872772,323.979523 447.554321,321.124695 467.185699,317.957489 
	C486.789276,314.794678 506.330170,311.242310 525.937073,308.101044 
	C541.878174,305.547119 557.894531,303.464539 573.843994,300.959686 
	C589.443787,298.509705 604.990417,295.723541 620.580627,293.210480 
	C632.010437,291.367981 643.472839,289.728058 654.921265,288.001373 
	C655.084290,287.976776 655.255249,288.009888 655.420471,287.994171 
	C666.235840,286.966187 666.109497,286.973816 663.796692,297.522919 
	C658.098938,323.512268 652.599365,349.545013 646.947327,375.544495 
	C645.501160,382.196747 644.681091,389.185059 641.980530,395.317474 
	C637.995972,404.365540 632.840271,412.938965 627.727478,421.440399 
	C617.189819,438.962189 606.347351,456.300598 595.638672,473.719574 
	C593.703613,476.867218 591.756104,480.009247 589.910522,483.209381 
	C588.193298,486.187042 587.244995,488.000122 582.956604,485.137970 
	C571.270142,477.338135 558.937927,470.506561 546.870178,463.277069 
	C525.276978,450.341064 503.723816,437.337738 482.080780,424.485779 
	C475.259155,420.434998 468.088715,416.970276 461.280579,412.898499 
	C449.301636,405.734131 437.485260,398.298187 425.587738,390.997314 
	C419.555847,387.295807 413.495392,383.640869 407.072266,379.930420 
z"/>
<path fill="#FFFFFF" opacity="1.000000" stroke="none" 
	d="
M542.176086,566.267700 
	C539.164795,571.645874 536.645508,576.890747 533.501099,581.729431 
	C530.528381,586.303894 522.944824,587.973755 515.536133,586.770813 
	C514.418945,586.589417 513.331360,586.063049 512.220459,586.031250 
	C498.974396,585.651855 485.722290,585.452148 472.480225,584.972412 
	C457.809448,584.440918 443.147644,583.664368 428.481567,583.002625 
	C420.899017,582.660522 413.318451,582.178467 405.731964,582.043579 
	C396.326447,581.876282 393.870270,580.370850 391.023438,571.285522 
	C383.961426,548.748108 377.082550,526.153259 370.059021,503.603638 
	C362.935181,480.731995 355.684204,457.899994 348.566864,435.026337 
	C342.121826,414.313324 335.747467,393.578125 329.421783,372.828369 
	C327.985901,368.118256 326.879272,363.307800 325.621094,358.543518 
	C326.020905,358.207520 326.420715,357.871521 326.820526,357.535553 
	C329.779968,359.152679 332.783905,360.693970 335.691895,362.398804 
	C362.215302,377.948059 388.751709,393.475525 415.225616,409.108734 
	C444.348206,426.306061 473.345886,443.715546 502.516418,460.830750 
	C525.824890,474.506470 549.292847,487.911041 572.736877,501.354248 
	C576.375610,503.440826 576.704102,506.056885 574.809692,509.362823 
	C567.518799,522.086060 560.194519,534.790161 552.899109,547.510742 
	C549.378906,553.648743 545.895264,559.807617 542.176086,566.267700 
z"/>
<path fill="#FFFFFF" opacity="1.000000" stroke="none" 
	d="
M790.732422,532.637451 
	C769.201660,540.798584 748.016907,548.771667 726.783569,556.613281 
	C718.810242,559.557922 710.551758,561.794617 702.755188,565.129822 
	C698.243164,567.059937 696.942627,564.923462 696.141418,561.650330 
	C693.951233,552.702148 691.952271,543.704407 690.033325,534.693237 
	C686.792847,519.476379 683.673462,504.233856 680.501343,489.002472 
	C676.345886,469.049011 672.178345,449.098083 668.041504,429.140778 
	C667.250732,425.325928 666.806335,421.424316 665.781982,417.677612 
	C664.914734,414.505371 665.859558,412.604553 668.896179,412.015747 
	C674.790955,410.872742 680.720093,409.879395 686.663330,409.019745 
	C698.292114,407.337799 709.933411,405.736908 721.582947,404.204437 
	C730.338989,403.052612 739.124146,402.122498 747.881714,400.981049 
	C759.375671,399.482941 770.849915,397.834045 782.342590,396.325806 
	C791.258484,395.155762 800.196594,394.155426 809.111938,392.981293 
	C817.848633,391.830688 826.563293,390.513062 835.298035,389.347412 
	C844.046326,388.179871 852.803955,387.079346 861.564758,386.009735 
	C865.785156,385.494446 870.022583,385.117828 875.475098,384.551392 
	C874.519226,391.342865 873.901062,397.427094 872.772949,403.415253 
	C869.975464,418.264587 866.925476,433.066193 864.013672,447.894165 
	C861.006775,463.206177 858.048157,478.527679 855.056946,493.842773 
	C854.408020,497.165222 854.053284,500.596436 852.959900,503.769684 
	C850.928040,509.666016 846.246948,512.890625 840.558777,514.946838 
	C825.319824,520.455505 810.112183,526.050842 794.877075,531.570190 
	C793.663757,532.009766 792.334473,532.129089 790.732422,532.637451 
z"/>
<path fill="#FFFFFF" opacity="1.000000" stroke="none" 
	d="
M302.735779,539.379639 
	C309.349792,544.668640 315.743317,549.660645 322.089325,554.712341 
	C333.645966,563.911987 345.213928,573.098206 356.695679,582.390686 
	C361.513489,586.289856 366.102295,590.470886 370.836578,594.474854 
	C373.629639,596.837158 374.057068,599.437561 372.985718,603.010315 
	C363.538940,634.513550 354.310333,666.082092 344.952179,697.612000 
	C338.625275,718.928894 332.198975,740.216248 325.806244,761.513550 
	C323.275360,769.945068 320.714905,778.367737 316.880920,786.978821 
	C267.172089,668.217407 217.463272,549.456055 167.754440,430.694672 
	C168.121307,430.351074 168.488174,430.007507 168.855042,429.663940 
	C172.886795,432.616913 177.057556,435.399384 180.925797,438.552948 
	C196.061676,450.892548 211.154968,463.285767 226.160141,475.783875 
	C237.193390,484.973633 247.941132,494.508392 259.040466,503.615967 
	C272.089874,514.323730 285.392120,524.723145 298.553589,535.294983 
	C299.972717,536.434875 301.185425,537.831848 302.735779,539.379639 
z"/>
<path fill="#FFFFFF" opacity="1.000000" stroke="none" 
	d="
M373.328857,309.309021 
	C363.487152,310.954224 354.020630,312.353394 344.554138,313.752563 
	C344.221710,313.490906 343.889313,313.229248 343.556885,312.967590 
	C346.355682,309.852112 348.906189,306.459961 352.005310,303.679199 
	C358.317108,298.015778 364.981567,292.747803 371.398621,287.198853 
	C384.398834,275.957275 397.352417,264.661407 410.282227,253.338837 
	C416.578949,247.824829 422.754883,242.173157 429.028259,236.632233 
	C440.080444,226.870422 451.179535,217.161713 462.231079,207.399216 
	C468.504120,201.857834 474.692963,196.221100 480.970306,190.684631 
	C494.731842,178.547318 508.549194,166.473251 522.296082,154.319412 
	C529.065125,148.334763 535.721069,142.222275 542.442444,136.183517 
	C545.246582,133.664124 548.003052,131.080673 550.937012,128.720047 
	C553.659607,126.529442 555.613586,126.622292 558.032227,130.010727 
	C567.899414,143.834290 578.222534,157.332047 588.352417,170.968613 
	C600.216919,186.940231 612.065613,202.923645 623.901611,218.916428 
	C633.898987,232.424957 643.880554,245.945297 653.830505,259.488739 
	C654.765991,260.761993 655.424683,262.238617 656.754028,264.572723 
	C652.847168,265.469482 649.566101,266.387268 646.225830,266.959717 
	C634.214111,269.018066 622.196533,271.051117 610.154114,272.919373 
	C598.569946,274.716553 586.935242,276.188995 575.354065,278.004150 
	C563.636475,279.840698 551.977783,282.055084 540.255249,283.856628 
	C530.106018,285.416412 519.891296,286.545959 509.727814,288.019043 
	C498.939514,289.582733 488.173157,291.300171 477.405151,293.000580 
	C467.128998,294.623291 456.860504,296.294739 446.593262,297.972992 
	C430.391510,300.621307 414.207916,303.384674 397.988129,305.916534 
	C389.926147,307.174988 381.800781,308.027069 373.328857,309.309021 
z"/>
<path fill="#FFFFFF" opacity="1.000000" stroke="none" 
	d="
M143.836243,309.034332 
	C144.620911,304.747864 147.949890,304.442230 151.046829,305.153473 
	C168.390137,309.136230 185.656540,313.452606 202.988281,317.487305 
	C228.390610,323.400787 253.826263,329.171143 279.246765,335.006683 
	C282.233551,335.692322 285.246155,336.292267 288.190491,337.129791 
	C292.730072,338.421082 294.570862,342.228638 295.883636,346.215820 
	C306.237701,377.662659 316.582153,409.112976 326.791382,440.607025 
	C334.982941,465.876740 342.906097,491.233490 351.099640,516.502563 
	C354.776031,527.840759 358.847839,539.050354 362.662659,550.344482 
	C363.070099,551.550781 362.956360,552.933105 363.184814,555.253784 
	C355.055786,549.005676 347.635834,543.221252 340.127289,537.554199 
	C332.681976,531.934814 324.998627,526.621643 317.688385,520.834778 
	C307.829346,513.030212 298.303955,504.805481 288.495331,496.935638 
	C276.736755,487.501282 264.823273,478.260071 252.990906,468.917419 
	C244.204437,461.979797 235.452408,454.998535 226.663300,448.064240 
	C215.977356,439.633331 205.230972,431.278595 194.581192,422.802429 
	C185.551163,415.615387 176.641693,408.277130 167.640060,401.054169 
	C161.702179,396.289612 155.569580,391.758331 149.782242,386.820129 
	C147.492783,384.866608 145.902817,382.093292 143.988007,378.871979 
	C143.933182,355.045258 143.884720,332.039795 143.836243,309.034332 
z"/>
<path fill="#FFFFFF" opacity="1.000000" stroke="none" 
	d="
M861.694336,543.261841 
	C874.348267,565.932373 886.665405,588.366455 899.174438,610.692932 
	C912.633179,634.714172 926.275574,658.632446 939.819031,682.606323 
	C940.368713,683.579285 940.711243,684.667542 941.176208,685.690308 
	C943.379517,690.536072 942.499329,692.118103 937.113770,691.936218 
	C921.110840,691.395874 905.114807,690.652466 889.115479,690.002380 
	C880.361023,689.646667 871.791931,689.828369 863.210144,686.230103 
	C853.482727,682.151550 845.739441,675.486023 837.151611,669.916382 
	C825.301941,662.231201 813.418213,654.597778 801.624878,646.827026 
	C794.222107,641.949280 786.912537,636.926147 779.642395,631.851746 
	C767.038879,623.054871 754.495544,614.171814 741.932739,605.316711 
	C734.666016,600.194641 727.486633,594.943665 720.115356,589.977234 
	C716.803223,587.745605 717.196899,586.304626 720.543457,585.015991 
	C748.326538,574.317627 776.132690,563.678955 803.911987,552.970825 
	C819.229126,547.066467 834.533142,541.126282 849.789490,535.067261 
	C854.536621,533.182007 857.558350,534.544739 859.475220,539.099365 
	C860.036133,540.432129 860.781372,541.687256 861.694336,543.261841 
z"/>
<path fill="#FFFFFF" opacity="1.000000" stroke="none" 
	d="
M236.793518,214.793839 
	C250.091522,202.138229 263.102692,189.693893 276.200317,177.341278 
	C285.785583,168.301239 295.457275,159.352249 305.141296,150.417755 
	C312.872284,143.285126 320.288422,135.719620 328.633667,129.386353 
	C332.312378,126.594551 337.892151,126.117172 342.716492,125.099892 
	C345.427612,124.528214 348.359100,124.959045 351.190094,125.007919 
	C356.064728,125.092087 356.909576,126.336899 355.327454,131.107437 
	C348.726318,151.011627 342.081421,170.901337 335.507172,190.814392 
	C324.496338,224.165497 313.531219,257.531708 302.537079,290.888367 
	C300.381958,297.427063 298.257416,303.977386 295.982117,310.474518 
	C293.659912,317.105408 289.990814,318.292572 283.983459,315.639740 
	C279.384796,313.609070 273.916321,313.636749 268.925720,312.385864 
	C259.594177,310.046875 250.383133,307.212769 241.021530,305.011810 
	C230.069351,302.436890 218.964920,300.510071 208.011246,297.940887 
	C199.275467,295.891907 190.690445,293.208588 181.993378,290.983215 
	C176.086441,289.471802 170.095215,288.291809 164.159302,286.889069 
	C163.416931,286.713623 162.782349,286.082001 161.417892,285.244293 
	C163.807495,283.197784 166.041260,281.467133 168.066360,279.519531 
	C177.977936,269.987213 187.763443,260.322968 197.730148,250.849091 
	C207.039139,242.000443 216.504883,233.316284 225.932343,224.592911 
	C229.424530,221.361526 233.004059,218.224518 236.793518,214.793839 
z"/>
<path fill="#FFFFFF" opacity="1.000000" stroke="none" 
	d="
M1113.035645,311.849915 
	C1118.014038,329.857666 1122.964355,347.446930 1127.910767,365.037201 
	C1128.476318,367.047882 1129.109131,369.044830 1129.558838,371.081665 
	C1130.586670,375.735687 1130.062256,379.406403 1125.288574,382.351654 
	C1117.203857,387.339905 1109.703125,393.266693 1101.737793,398.463165 
	C1100.219238,399.453796 1097.278320,399.700745 1095.696045,398.900970 
	C1089.778320,395.909393 1084.140869,392.360077 1078.419556,388.983948 
	C1069.931030,383.975037 1061.463501,378.930573 1052.981689,373.910248 
	C1042.266846,367.568268 1031.512329,361.292328 1020.837524,354.883911 
	C1007.713440,347.005219 994.674988,338.983948 981.554260,331.099609 
	C977.253845,328.515411 972.731628,326.295258 968.477539,323.641449 
	C966.927734,322.674561 965.862549,320.930664 964.228210,319.165344 
	C1006.880859,291.530151 1048.890503,264.311646 1092.045044,236.351257 
	C1093.604370,241.119003 1095.255737,245.524246 1096.487305,250.043854 
	C1102.058472,270.488800 1107.511108,290.966095 1113.035645,311.849915 
z"/>
<path fill="#FFFFFF" opacity="1.000000" stroke="none" 
	d="
M143.819183,588.071472 
	C145.041840,582.054382 145.812881,575.901184 147.576736,570.047180 
	C151.879486,555.766846 156.642212,541.625122 161.219452,527.427490 
	C163.829712,519.331055 166.394028,511.219330 169.089111,503.151276 
	C169.607300,501.599976 170.637848,500.219849 172.083023,497.564758 
	C175.752548,505.489014 178.967499,512.081909 181.884872,518.803894 
	C188.103668,533.132935 194.118835,547.550232 200.307693,561.892456 
	C208.919540,581.849670 217.620056,601.768738 226.270447,621.709351 
	C229.862701,629.990112 233.219208,638.381470 237.086609,646.530945 
	C238.964828,650.488647 237.920517,653.118958 234.852982,655.481934 
	C214.719116,670.991211 194.590546,686.507629 174.414948,701.962585 
	C162.094345,711.400391 149.648468,720.674988 137.347366,730.138000 
	C131.547684,734.599670 125.956223,739.331909 119.147095,744.852234 
	C119.048660,742.817139 118.638496,741.520081 118.986374,740.475525 
	C126.925766,716.636902 134.951996,692.827332 142.931549,669.002075 
	C143.133972,668.397705 142.993256,667.678467 143.416870,666.397705 
	C143.820496,639.878906 143.819839,613.975159 143.819183,588.071472 
z"/>
<path fill="#FFFFFF" opacity="1.000000" stroke="none" 
	d="
M1052.189453,176.964752 
	C1075.227661,183.183182 1097.847534,189.375916 1120.467407,195.568649 
	C1120.683105,196.133698 1120.898926,196.698730 1121.114624,197.263779 
	C1066.049561,230.488953 1010.984619,263.714142 955.724487,297.057037 
	C951.118408,293.114075 953.444092,287.978577 953.364868,283.320648 
	C953.345947,282.208771 953.936829,281.094238 953.971008,279.972504 
	C954.353699,267.389221 954.596802,254.801208 955.046936,242.220551 
	C955.619995,226.206940 956.276306,210.195465 957.035156,194.189636 
	C957.581360,182.670441 958.415527,171.165115 958.999634,159.647430 
	C959.293091,153.860580 961.752747,151.612396 967.150085,153.111771 
	C988.394531,159.013458 1009.600525,165.053406 1030.821411,171.039871 
	C1037.803711,173.009598 1044.787842,174.972839 1052.189453,176.964752 
z"/>
<path fill="#FFFFFF" opacity="1.000000" stroke="none" 
	d="
M515.055542,124.862076 
	C517.686707,126.344238 516.870667,127.742714 515.074402,129.333511 
	C505.865082,137.489563 496.739014,145.739838 487.508881,153.872086 
	C473.996765,165.777039 460.395996,177.581421 446.882874,189.485214 
	C440.231812,195.344208 433.718658,201.359436 427.097565,207.252838 
	C412.280151,220.441727 397.402191,233.562744 382.613068,246.783218 
	C374.887604,253.689301 367.345062,260.799805 359.635315,267.723785 
	C349.790405,276.565247 339.860077,285.311554 329.966553,294.098877 
	C329.546875,293.934601 329.127167,293.770325 328.707489,293.606049 
	C329.867218,289.268951 330.884369,284.887787 332.208801,280.601562 
	C344.462250,240.946198 356.771912,201.308197 369.057434,161.662720 
	C372.199280,151.523911 375.145569,141.319336 378.566681,131.276093 
	C379.354187,128.964233 381.727081,127.192429 384.159912,125.067871 
	C428.318085,124.929794 471.686829,124.895935 515.055542,124.862076 
z"/>
<path fill="#FFFFFF" opacity="1.000000" stroke="none" 
	d="
M852.091187,358.704102 
	C853.274719,359.671783 854.217285,360.367371 856.403259,361.980499 
	C852.118652,363.282379 849.370667,364.561951 846.509338,364.909729 
	C834.177795,366.408752 821.792175,367.466553 809.465881,369.003387 
	C794.914124,370.817657 780.416382,373.062103 765.870056,374.923920 
	C756.466003,376.127563 747.002991,376.866211 737.591309,378.016693 
	C725.133484,379.539581 712.706421,381.312164 700.253906,382.880432 
	C691.336975,384.003510 682.406921,385.034119 673.468323,385.968018 
	C670.104248,386.319489 668.225830,383.565521 669.080688,379.739471 
	C672.366394,365.032776 675.681335,350.332581 679.007019,335.634827 
	C684.327454,312.121216 689.670837,288.612823 694.988892,265.098663 
	C695.704468,261.934814 696.173828,258.705872 697.065979,255.595596 
	C697.474548,254.171356 698.632202,252.961990 699.896729,250.941711 
	C700.620422,252.533920 700.906555,253.063690 701.109009,253.623718 
	C704.404480,262.737396 710.978760,268.683502 719.037659,273.792053 
	C749.238098,292.935974 779.182678,312.482941 809.266296,331.811737 
	C821.858459,339.902252 834.553345,347.832916 847.215576,355.813965 
	C848.714844,356.758942 850.303162,357.562714 852.091187,358.704102 
z"/>
<path fill="#FFFFFF" opacity="1.000000" stroke="none" 
	d="
M732.741760,85.625687 
	C721.305115,95.407082 710.070129,104.871788 698.931274,114.448364 
	C690.862793,121.385185 682.893555,128.438416 674.932861,135.499344 
	C668.428101,141.268936 662.084229,147.222427 655.506958,152.906845 
	C651.985107,155.950623 651.410034,159.234543 653.561646,163.191971 
	C661.492798,177.779358 669.288208,192.443161 677.428406,206.912949 
	C680.402832,212.200027 680.053101,217.413055 678.997192,222.940018 
	C677.836304,229.016495 676.930603,235.141479 675.811340,241.226501 
	C675.686584,241.904816 674.894714,242.460388 674.065491,243.512955 
	C641.378906,201.190247 608.971191,159.228516 575.628357,116.056030 
	C582.008179,114.155792 587.234802,112.376381 592.574219,111.051559 
	C607.027527,107.465401 621.537476,104.108345 636.008972,100.594749 
	C661.349487,94.442245 686.675903,88.231819 712.012756,82.064484 
	C720.950256,79.888977 729.889404,77.716820 738.857300,75.672791 
	C740.398193,75.321571 742.087830,75.623085 745.142151,75.623085 
	C740.306458,79.494720 736.645508,82.425819 732.741760,85.625687 
z"/>
<path fill="#FFFFFF" opacity="1.000000" stroke="none" 
	d="
M81.971603,858.147949 
	C81.548523,856.667053 80.423515,854.967102 80.807083,853.737854 
	C87.095108,833.586609 93.620956,813.509827 99.982918,793.381348 
	C102.175613,786.443909 108.025475,782.767944 113.123703,778.617859 
	C124.932037,769.005554 137.124390,759.866089 149.123291,750.486633 
	C163.410034,739.318665 177.657288,728.100220 193.067734,717.281067 
	C192.352554,720.891296 191.830032,724.552429 190.891800,728.103699 
	C183.175339,757.312012 175.551056,786.546753 167.512756,815.666870 
	C164.950378,824.949524 166.617905,833.774048 168.379166,842.732666 
	C169.065567,846.224060 170.296692,849.617310 170.842636,853.123291 
	C171.079315,854.643250 170.211456,856.335266 168.971191,857.995056 
	C139.388580,858.076660 110.680092,858.112305 81.971603,858.147949 
z"/>
<path fill="#FFFFFF" opacity="1.000000" stroke="none" 
	d="
M332.006439,860.155518 
	C328.720612,860.014587 326.677460,859.659729 327.810120,855.054871 
	C332.633301,835.445679 336.915375,815.704041 341.507996,796.037231 
	C348.636444,765.511169 355.833099,735.000977 363.079987,704.502869 
	C363.717621,701.819214 364.939270,699.274353 365.889679,696.665100 
	C366.413818,696.765503 366.937958,696.865906 367.462097,696.966309 
	C371.279510,709.358948 375.100677,721.750488 378.913544,734.144531 
	C386.578308,759.059448 394.313782,783.952942 401.868073,808.901306 
	C405.490814,820.865540 413.337250,830.332336 419.959961,840.531799 
	C422.765778,844.852966 425.902069,848.965210 428.583374,853.358459 
	C429.616852,855.051819 429.804230,857.261597 430.378235,859.239990 
	C428.526825,859.958618 427.221558,860.465210 425.323334,860.572021 
	C393.822388,860.166565 362.914398,860.161072 332.006439,860.155518 
z"/>
<path fill="#FFFFFF" opacity="1.000000" stroke="none" 
	d="
M892.077087,862.169800 
	C881.500854,855.782654 879.995605,851.482239 884.020630,839.298584 
	C888.046448,827.113037 891.418762,814.660034 896.296814,802.826904 
	C899.244141,795.677429 903.833008,788.906982 908.874146,782.977844 
	C920.772522,768.983337 933.426270,755.632935 945.669800,741.928528 
	C948.215881,739.078674 950.309082,735.824341 952.611023,732.756409 
	C953.088257,732.816162 953.565491,732.875916 954.042725,732.935669 
	C954.362976,734.665100 954.952271,736.393188 954.961182,738.124268 
	C955.035645,752.629944 955.094849,767.136963 954.975708,781.642090 
	C954.873169,794.130920 959.809326,804.544250 967.415833,814.080688 
	C974.175049,822.554871 980.648743,831.256836 987.245911,839.860168 
	C990.078735,843.554443 990.757996,847.386536 987.821411,851.345520 
	C985.170105,854.920044 982.443298,858.438538 978.927673,862.000244 
	C949.429382,862.069092 920.753235,862.119446 892.077087,862.169800 
z"/>
<path fill="#FFFFFF" opacity="1.000000" stroke="none" 
	d="
M748.012512,635.025574 
	C762.472778,644.728577 776.542175,654.421143 790.670410,664.027283 
	C797.198914,668.466187 797.227051,669.181641 792.253723,675.165710 
	C779.884583,690.048828 767.723877,705.104980 755.373169,720.003540 
	C746.530457,730.670410 737.447693,741.138245 728.599609,751.800720 
	C721.549500,760.296509 714.741943,768.993652 707.696411,777.493408 
	C706.613098,778.800293 704.827820,779.525330 703.367188,780.519470 
	C702.920227,778.864197 701.971008,777.165710 702.109375,775.560852 
	C702.896057,766.435913 704.006165,757.339417 704.876038,748.220825 
	C705.375977,742.979370 705.678833,737.717407 705.984558,732.459656 
	C706.692627,720.281799 707.269348,708.095947 708.046265,695.922729 
	C708.957581,681.644958 709.947937,667.371277 711.048462,653.106995 
	C711.918945,641.824707 713.003479,630.559021 714.002014,619.286682 
	C714.392822,614.874939 716.002625,613.741699 719.575806,616.061707 
	C729.037903,622.205322 738.302551,628.653076 748.012512,635.025574 
z"/>
<path fill="#FFFFFF" opacity="1.000000" stroke="none" 
	d="
M953.574219,126.711166 
	C951.015259,128.119995 948.931091,128.915970 947.192383,126.037445 
	C946.648438,125.137016 945.348083,124.730583 944.543152,123.945213 
	C930.415222,110.161102 916.334351,96.328766 902.192261,82.559258 
	C892.940735,73.551498 883.634399,64.599518 874.294739,55.683228 
	C871.578064,53.089703 868.597839,50.772747 865.871338,48.188778 
	C864.919373,47.286572 864.367371,45.962425 863.632751,44.830971 
	C863.887878,44.379227 864.143005,43.927483 864.398132,43.475739 
	C921.931091,55.211132 979.464050,66.946518 1036.996948,78.681915 
	C1037.167725,79.313171 1037.338379,79.944427 1037.509155,80.575684 
	C1009.965393,96.453262 981.646118,110.964340 953.574219,126.711166 
z"/>
<path fill="#FFFFFF" opacity="1.000000" stroke="none" 
	d="
M1186.953369,584.098511 
	C1186.966431,587.469971 1186.979370,590.841370 1187.034424,595.123535 
	C1187.040405,603.419495 1186.945068,610.805420 1187.013916,618.189758 
	C1187.029175,619.828369 1187.623779,621.461609 1187.951782,623.097290 
	C1187.951782,630.233948 1187.951782,637.370667 1187.951782,645.232483 
	C1185.875366,643.612549 1184.100952,642.499084 1182.652954,641.057678 
	C1163.648315,622.140686 1144.675171,603.191956 1125.742065,584.203430 
	C1123.799561,582.255188 1121.622681,580.229858 1120.588867,577.800110 
	C1119.942139,576.279846 1120.715698,573.601807 1121.738281,572.014099 
	C1128.710449,561.188660 1135.858398,550.474670 1143.062622,539.800903 
	C1155.322388,521.636658 1167.650513,503.518372 1180.009155,485.421265 
	C1180.766846,484.311859 1182.043823,483.557129 1183.503418,482.260620 
	C1183.793213,483.754639 1183.957031,484.227875 1183.967041,484.704285 
	C1184.321411,501.619537 1184.607422,518.536377 1185.030273,535.449890 
	C1185.195190,542.043030 1185.664062,548.628479 1186.035889,556.129395 
	C1186.041016,564.424988 1185.945679,571.809204 1186.014526,579.191833 
	C1186.029785,580.830200 1186.625122,582.463074 1186.953369,584.098511 
z"/>
<path fill="#FFFFFF" opacity="1.000000" stroke="none" 
	d="
M626.791687,461.806885 
	C632.857910,451.748108 638.657776,441.959503 645.224365,430.876984 
	C646.654236,437.027649 647.968079,441.967926 648.934692,446.975189 
	C651.491333,460.218933 653.862610,473.498352 656.373657,486.751068 
	C658.850281,499.821655 661.671631,512.837036 663.654785,525.980347 
	C663.964722,528.034485 661.136230,531.784912 658.881165,532.799011 
	C646.901733,538.186523 634.620728,542.899597 622.485474,547.945435 
	C607.387695,554.223083 592.330383,560.598022 577.255249,566.930176 
	C573.039490,568.701111 568.822754,570.469666 564.606445,572.239258 
	C564.232300,571.885620 563.858093,571.531982 563.483887,571.178406 
	C567.247253,564.395386 570.896118,557.545776 574.796570,550.842529 
	C584.500000,534.166016 594.330933,517.563721 604.085815,500.917053 
	C611.321350,488.569458 618.520081,476.200287 625.724304,463.834381 
	C626.046692,463.280853 626.260803,462.664276 626.791687,461.806885 
z"/>
<path fill="#FFFFFF" opacity="1.000000" stroke="none" 
	d="
M1104.016846,496.040649 
	C1102.331055,478.626343 1100.697998,461.670044 1098.963135,444.724152 
	C1098.465332,439.862732 1097.612793,435.038696 1097.033325,430.184357 
	C1096.431763,425.144714 1098.495117,423.317139 1103.418335,424.792023 
	C1123.890015,430.924927 1144.330078,437.163452 1164.778687,443.373596 
	C1167.234619,444.119446 1169.739136,444.764587 1172.102539,445.743195 
	C1176.744263,447.665100 1177.026367,448.931030 1174.166504,453.218536 
	C1166.833008,464.212677 1159.479126,475.193420 1152.182983,486.212372 
	C1138.591187,506.739563 1125.034668,527.290039 1110.568359,549.185791 
	C1107.966553,539.812561 1107.753784,531.279358 1106.959717,522.823975 
	C1106.134521,514.036011 1105.019287,505.275238 1104.016846,496.040649 
z"/>
<path fill="#FFFFFF" opacity="1.000000" stroke="none" 
	d="
M1133.977539,309.130737 
	C1130.667236,296.914703 1127.316528,285.139526 1124.141724,273.317108 
	C1120.557617,259.970673 1117.151611,246.576462 1113.624268,233.214615 
	C1112.594482,229.314194 1113.443115,226.200287 1117.043213,224.092026 
	C1123.007690,220.599106 1128.920776,217.006241 1135.035889,213.799316 
	C1135.762573,213.418228 1138.460327,214.912994 1138.815430,216.003525 
	C1141.710205,224.895233 1144.349487,233.873627 1146.905518,242.871338 
	C1152.373657,262.118988 1157.884888,281.356262 1163.114014,300.669434 
	C1167.586426,317.187775 1172.989258,333.608704 1175.545288,350.442474 
	C1177.584961,363.876099 1175.956909,377.866608 1175.956909,391.861206 
	C1176.398560,391.718384 1175.978271,391.999084 1175.805054,391.889465 
	C1168.213867,387.085052 1160.355957,382.624023 1153.240234,377.191589 
	C1150.973389,375.460968 1150.407349,371.213379 1149.537354,367.989471 
	C1144.286865,348.530487 1139.173950,329.034393 1133.977539,309.130737 
z"/>
<path fill="#FFFFFF" opacity="1.000000" stroke="none" 
	d="
M1043.253906,102.313774 
	C1049.103882,98.848282 1054.672974,95.638603 1060.239014,92.423737 
	C1063.521973,90.527611 1065.668457,90.534836 1068.145630,94.408508 
	C1084.447998,119.901184 1101.100952,145.169617 1118.249878,171.446243 
	C1115.038452,171.446243 1112.384888,171.903381 1109.960571,171.352432 
	C1104.685181,170.153549 1099.561523,168.303818 1094.311890,166.971497 
	C1087.296265,165.190903 1080.202393,163.720474 1073.174316,161.986328 
	C1064.004395,159.723740 1054.859741,157.357285 1045.715942,154.990509 
	C1038.134644,153.028183 1030.573730,150.986465 1022.997070,149.005966 
	C1015.274414,146.987335 1007.552673,144.963608 999.812378,143.014206 
	C995.517639,141.932556 991.129150,141.183365 986.903992,139.888947 
	C985.571411,139.480667 984.631775,137.789871 983.141479,136.320450 
	C1003.578003,124.791267 1023.274902,113.679337 1043.253906,102.313774 
z"/>
<path fill="#FFFFFF" opacity="1.000000" stroke="none" 
	d="
M685.038452,858.167114 
	C684.682251,856.913940 683.720337,855.459778 684.059692,854.437500 
	C690.235352,835.833252 699.796021,819.232544 712.932190,804.566589 
	C725.243530,790.821350 737.032043,776.607300 749.026428,762.578918 
	C756.554077,753.774719 764.028198,744.924683 771.554749,736.119507 
	C772.266541,735.286804 773.181885,734.627991 774.971558,734.286072 
	C773.917908,738.986023 773.025024,743.728882 771.783813,748.378784 
	C765.208191,773.013123 758.637207,797.649475 751.858032,822.228210 
	C749.703613,830.039124 751.148254,836.890381 755.710144,843.357361 
	C757.847351,846.387146 760.073059,849.406616 761.732483,852.696167 
	C762.413818,854.046692 761.707214,856.097412 760.841309,857.924316 
	C735.046570,858.068359 710.042542,858.117737 685.038452,858.167114 
z"/>
<path fill="#FFFFFF" opacity="1.000000" stroke="none" 
	d="
M1183.911987,782.967529 
	C1178.551392,791.959290 1173.224976,800.575989 1167.899414,809.193115 
	C1166.022583,812.229919 1164.247070,812.850098 1161.372070,809.892700 
	C1156.314209,804.689697 1155.051636,798.910706 1157.028564,792.071655 
	C1161.537231,776.474365 1165.856934,760.822266 1170.393066,745.232971 
	C1172.406372,738.313721 1170.050903,731.931396 1167.921387,725.730408 
	C1162.407471,709.673889 1156.349609,693.804382 1150.527222,677.853516 
	C1144.706665,661.907471 1138.904175,645.954712 1133.123169,629.994263 
	C1132.970947,629.574158 1133.158325,629.031006 1133.270142,627.158630 
	C1136.061523,629.040466 1138.529419,630.269165 1140.453735,632.076599 
	C1148.891846,640.002197 1157.087036,648.186768 1165.539062,656.097168 
	C1171.754761,661.914612 1178.310303,667.367981 1184.563477,673.146912 
	C1188.328125,676.625977 1190.988892,680.546326 1191.118286,686.221436 
	C1191.433838,700.069092 1192.250488,713.908264 1193.040649,727.740906 
	C1193.518066,736.098633 1194.196167,744.450012 1195.011230,752.782043 
	C1196.163696,764.562439 1190.349854,773.665649 1183.911987,782.967529 
z"/>
<path fill="#FFFFFF" opacity="1.000000" stroke="none" 
	d="
M896.583496,709.278015 
	C899.796326,709.663696 902.590149,709.817139 905.382141,709.998901 
	C915.542236,710.660217 925.704285,711.295044 935.857483,712.049377 
	C936.973389,712.132263 938.036865,712.921143 939.274597,713.446167 
	C925.350159,730.298340 911.814697,746.679871 897.287231,764.261902 
	C894.977966,758.037964 892.919678,752.776062 891.068909,747.442200 
	C887.345154,736.710327 883.746399,725.935303 880.071655,715.186401 
	C878.549316,710.733521 879.741211,709.085266 884.682495,709.040344 
	C888.509216,709.005554 892.336670,709.049683 896.583496,709.278015 
z"/>
<path fill="#FFFFFF" opacity="1.000000" stroke="none" 
	d="
M1187.764893,427.947144 
	C1166.722534,423.324677 1146.291992,418.033508 1126.104004,411.880859 
	C1126.039673,411.311310 1125.975220,410.741730 1125.910889,410.172180 
	C1131.689209,405.562805 1137.367310,400.815308 1143.343384,396.478302 
	C1144.353394,395.745392 1147.020874,396.226990 1148.290283,397.083923 
	C1163.290039,407.209961 1178.169556,417.514252 1192.748779,428.925140 
	C1191.228027,428.601501 1189.707153,428.277863 1187.764893,427.947144 
z"/>
<path fill="#B23436" opacity="1.000000" stroke="none" 
	d="
M120.996628,371.713837 
	C120.996300,347.091125 120.996300,322.912140 120.996300,298.733185 
	C121.485565,298.623535 121.974831,298.513885 122.464096,298.404236 
	C122.974266,300.380646 123.825493,302.340027 123.925270,304.336945 
	C124.149216,308.819092 123.934319,313.321045 124.014305,317.812897 
	C124.318771,334.912476 124.670341,352.011230 125.000252,369.110382 
	C125.019508,370.108490 125.231232,371.177032 124.952202,372.090240 
	C124.477913,373.642456 123.684113,375.097076 123.024574,376.592682 
	C122.348694,375.114319 121.672829,373.635956 120.996628,371.713837 
z"/>
<path fill="#551316" opacity="1.000000" stroke="none" 
	d="
M514.736938,124.586143 
	C471.686829,124.895935 428.318085,124.929794 384.483948,124.902161 
	C385.275909,124.563286 386.533081,124.044716 387.790771,124.043449 
	C429.347809,124.001556 470.904846,124.007843 512.461914,124.022064 
	C513.114014,124.022285 513.766174,124.209999 514.736938,124.586143 
z"/>
<path fill="#521316" opacity="1.000000" stroke="none" 
	d="
M332.330750,860.412170 
	C362.914398,860.161072 393.822388,860.166565 424.931183,860.572021 
	C394.957184,860.971130 364.782318,860.972229 334.607483,860.957031 
	C333.956665,860.956665 333.305878,860.769043 332.330750,860.412170 
z"/>
<path fill="#2E0B0D" opacity="1.000000" stroke="none" 
	d="
M82.298538,858.407410 
	C110.680092,858.112305 139.388580,858.076660 168.570892,858.093018 
	C167.786575,858.420959 166.528824,858.935669 165.270233,858.937683 
	C138.375000,858.981140 111.479683,858.969177 84.584381,858.951782 
	C83.931351,858.951355 83.278435,858.765991 82.298538,858.407410 
z"/>
<path fill="#410F11" opacity="1.000000" stroke="none" 
	d="
M892.395386,862.424500 
	C920.753235,862.119446 949.429382,862.069092 978.578674,862.080505 
	C977.805115,862.437439 976.558899,862.988159 975.311768,862.990356 
	C948.595398,863.037109 921.878906,863.025391 895.162476,863.005310 
	C894.346130,863.004700 893.529907,862.792664 892.395386,862.424500 
z"/>
<path fill="#781B1F" opacity="1.000000" stroke="none" 
	d="
M143.562103,588.387695 
	C143.819839,613.975159 143.820496,639.878906 143.422211,665.999695 
	C143.117188,640.379211 143.211105,614.541565 143.562103,588.387695 
z"/>
<path fill="#7D1D21" opacity="1.000000" stroke="none" 
	d="
M685.353760,858.431274 
	C710.042542,858.117737 735.046570,858.068359 760.513794,858.088806 
	C759.728455,858.437622 758.480347,858.957458 757.231262,858.960083 
	C734.026978,859.007996 710.822632,858.996765 687.618286,858.981079 
	C686.968445,858.980652 686.318787,858.794861 685.353760,858.431274 
z"/>
<path fill="#7D1C20" opacity="1.000000" stroke="none" 
	d="
M143.574554,309.351959 
	C143.884720,332.039795 143.933182,355.045258 143.911118,378.513794 
	C143.573441,378.391418 143.071671,377.805389 143.072998,377.220581 
	C143.124283,354.703522 143.221619,332.186554 143.574554,309.351959 
z"/>
<path fill="#390E10" opacity="1.000000" stroke="none" 
	d="
M1188.003174,622.625122 
	C1187.623779,621.461609 1187.029175,619.828369 1187.013916,618.189758 
	C1186.945068,610.805420 1187.040405,603.419495 1187.128662,595.578796 
	C1187.471924,604.133240 1187.763184,613.143066 1188.003174,622.625122 
z"/>
<path fill="#3C0E10" opacity="1.000000" stroke="none" 
	d="
M1187.003174,583.626099 
	C1186.625122,582.463074 1186.029785,580.830200 1186.014526,579.191833 
	C1185.945679,571.809204 1186.041016,564.424988 1186.130615,556.587219 
	C1186.473633,565.139893 1186.763306,574.146790 1187.003174,583.626099 
z"/>
</svg>