<svg xmlns="http://www.w3.org/2000/svg" height="48" viewBox="0 96 960 960" width="48"><path d="M482.5 573.5Zm-109 295-187-187q-8.5 42-6.25 96.5t10.25 83.5q29.099 7.818 85.05 11.659Q331.5 877 373.5 868.5Zm71-10.5q61.5-11.5 116-39.5t94.572-68.072Q693.5 712 721 659.5T762.5 540L516 293.5q-62.5 14-117.25 41.5t-93.25 66q-39 39-65.5 93.25T198 611.5L444.5 858Zm-97-149.5q-9-8.5-9-19.75t9-20.25L574 442q7.686-8 19.093-8t20.407 8.5q8.5 9 8.5 20.25T613.5 483l-227 226.5q-8.186 8-19.343 8t-19.657-9ZM774 470q8-42 6-96.5t-10.028-83.64q-29.594-7.907-85.283-11.383Q629 275 587 283l187 187ZM297.921 931q-53.389 0-95.061-7.045-41.671-7.044-52.86-17.477-11-11.478-18-52.92-7-41.441-7-95.058 0-123.393 35.467-229.669Q195.935 422.554 261.5 357q65-65.5 171.12-101Q538.739 220.5 663 220.5q53.079 0 94.54 7.25Q799 235 810 245.022 821 256.5 828.25 298t7.25 94.5q0 124.306-35.5 230.653T699.5 795q-66 65.5-172.25 100.75T297.921 931Z"/></svg>