<svg xmlns="http://www.w3.org/2000/svg" height="48" viewBox="0 96 960 960" width="48"><path d="M222 874h148V624.5h220V874h148V486.5L480 293 222 486.333V874Zm-.221 57.5q-23.529 0-40.404-16.859Q164.5 897.781 164.5 874V486.5q0-13.844 5.891-25.875 5.89-12.031 17.109-20.125l258-193.5q8.295-5.5 16.844-8.5 8.549-3 17.853-3 9.303 0 17.717 3 8.415 3 16.586 8.5l258 193.5q11.219 8.094 17.109 20.125 5.891 12.031 5.891 25.875V874q0 23.781-16.859 40.641Q761.781 931.5 738 931.5H532.5V682h-105v249.5H221.779ZM480 583Z"/></svg>